<svg xmlns="http://www.w3.org/2000/svg" version="1.1" xmlns:xlink="http://www.w3.org/1999/xlink" viewBox="0 0 12.43740996766349 5.908493737385401"><g transform="matrix(0.7944386546725263,0,0,0.7944386546725263,4.617372168400611,2.124882704664133)"><g transform="matrix(1,0,0,1,0,0)" clip-path="url(#SvgjsClipPath120748)"><g clip-path="url(#SvgjsClipPath120746534853e1-f5d8-4bfc-ac78-5fbb0cd8796f)"><path d=" M -0.8178203680914282 1.5042656518491524 C -0.8318353070630495 1.5042656518491524 -0.8454122791918062 1.5033897181634261 -0.8589892513205633 1.502075817634837 C -0.8589892513205633 1.502075817634837 -0.8594272181634266 1.502075817634837 -0.8594272181634266 1.502075817634837 L -0.8594272181634266 1.5025137844777003 L -0.8594272181634266 2.995104784955257 C -0.8594272181634266 3.04590893872738 -0.9005961013925607 3.0870778219565143 -0.9514002551646841 3.0870778219565143 L -1.5724372383446061 3.0870778219565143 L -1.5724372383446061 3.2333587474728 L -0.8603031518491524 3.2333587474728 C -0.7788413190766095 3.2333587474728 -0.7131462926471399 3.1672257542004667 -0.7131462926471399 3.0862018882707876 L -0.7131462926471399 1.4911266465632582 C -0.7236574968758549 1.4937544476204374 -0.7350446347902961 1.4963822486776166 -0.7459938058618745 1.4981341160490687 C -0.7692060485336207 1.502075817634837 -0.7932942248910928 1.5042656518491524 -0.8178203680914282 1.5042656518491524 Z" fill="#1c3423" transform="matrix(1,0,0,1,0,0)" fill-rule="nonzero"></path></g><g clip-path="url(#SvgjsClipPath120746534853e1-f5d8-4bfc-ac78-5fbb0cd8796f)"><path d=" M -2.8872137006197303 3.0870778219565143 C -2.9380178543918536 3.0870778219565143 -2.979186737620988 3.04590893872738 -2.979186737620988 2.995104784955257 L -2.979186737620988 1.5025137844777003 L -2.979186737620988 1.502075817634837 C -2.9927637097497453 1.5033897181634261 -3.0063406818785023 1.5042656518491524 -3.0203556208501228 1.5042656518491524 C -3.044881764050458 1.5042656518491524 -3.0685319735650674 1.502075817634837 -3.0921821830796765 1.4981341160490687 C -3.1035693209941178 1.4963822486776166 -3.114518492065696 1.4941924144633008 -3.1254676631372744 1.4911266465632582 L -3.1254676631372744 3.0862018882707876 C -3.1254676631372744 3.167663721043331 -3.0593346698649415 3.2333587474728 -2.978310803935262 3.2333587474728 L -2.266614684282671 3.2333587474728 L -2.266614684282671 3.0870778219565143 L -2.8872137006197303 3.0870778219565143 Z" fill="#1c3423" transform="matrix(1,0,0,1,0,0)" fill-rule="nonzero"></path></g><g clip-path="url(#SvgjsClipPath120746534853e1-f5d8-4bfc-ac78-5fbb0cd8796f)"><path d=" M -1.5724372383446061 2.230414677316226 C -1.5724372383446061 2.1384416403149684 -1.6473295684742018 2.0635493101853726 -1.7393026054754597 2.0635493101853726 L -2.099749317151818 2.0635493101853726 C -2.1917223541530757 2.0635493101853726 -2.2666146842826715 2.1384416403149684 -2.2666146842826715 2.230414677316226 L -2.2666146842826715 3.0870778219565143 L -2.2666146842826715 3.2333587474728 L -2.2666146842826715 3.2337967143156634 L -1.5724372383446064 3.2337967143156634 L -1.5724372383446064 3.2333587474728 L -1.5724372383446064 3.0870778219565143 L -1.5724372383446064 2.230414677316226 Z M -2.119895791923522 3.0870778219565143 L -2.119895791923522 2.2650140579024134 C -2.119895791923522 2.2347943457448576 -2.095369648723186 2.2102682025445217 -2.0651499365656303 2.2102682025445217 L -1.7734640192187836 2.2102682025445217 C -1.7603250139328899 2.2102682025445217 -1.748061942332722 2.2150858378160168 -1.7388646386325965 2.2229692409875526 C -1.7349229370468284 2.2264729757304575 -1.7314192023039234 2.230414677316226 -1.7283534344038813 2.2347943457448576 C -1.726601567032429 2.2378601136448992 -1.7248496996609763 2.240925881544941 -1.7230978322895238 2.2439916494449834 C -1.720907998075208 2.2488092847164785 -1.7195940975466188 2.254064886830835 -1.7191561307037557 2.259758455788057 C -1.7191561307037557 2.2615103231595084 -1.7187181638608924 2.263262190530961 -1.7187181638608924 2.2654520247452767 L -1.7187181638608924 3.0875157887993767 L -2.119895791923522 3.0875157887993767 Z" fill="#1c3423" transform="matrix(1,0,0,1,0,0)" fill-rule="nonzero"></path></g><g clip-path="url(#SvgjsClipPath120746534853e1-f5d8-4bfc-ac78-5fbb0cd8796f)"><path d=" M -0.4236502095146091 0.9502375956272899 L -0.5397114228733391 0.6138790603084037 L -0.555478229216412 0.568330508650638 C -0.5559161960592753 0.5678925418077747 -0.5559161960592753 0.5670166081220487 -0.5559161960592753 0.5665786412791856 C -0.5563541629021387 0.5661406744363222 -0.5563541629021387 0.5652647407505962 -0.5567921297450016 0.5648267739077331 L -0.5567921297450016 0.5643888070648699 C -0.5589819639593174 0.5591332049505124 -0.5611717981736333 0.5543155696790178 -0.563799599230812 0.5494979344075235 C -0.5642375660736758 0.5486220007217975 -0.5646755329165387 0.547746067036071 -0.5651134997594016 0.5468701333503447 C -0.5940193113883678 0.48862054324954807 -0.6360641283032291 0.4408821573774664 -0.6754811441609108 0.4045309094198266 C -0.7074527236899195 0.37781493200517535 -0.7424900711189699 0.35197488827625056 -0.7805931864480629 0.32744874507591515 C -0.8147546001913866 0.3055504029327585 -0.8506678813061641 0.28409002763246516 -0.8892089634781195 0.26394355286076077 C -1.0109637457940703 0.2004383606456066 -1.1511131355102724 0.14919624003061993 -1.30308762998378 0.11153109154439056 C -1.331993441612747 0.10452362205858035 -1.3613372200845766 0.09795411941563326 -1.39111896539927 0.09182258361554974 C -1.5360859903869661 0.06291677198658285 -1.691126252760515 0.04539809827205743 -1.8501082167198322 0.04145639668628931 L -1.8501082167198322 -0.11840150095875401 C -1.8501082167198322 -0.1302266057160586 -1.8413488798625695 -0.14029984310191068 -1.8299617419481282 -0.1424896773162263 C -1.5895179452162684 -0.18628636160253964 -1.4147691749138782 -0.39563451249111703 -1.4147691749138782 -0.640020010808745 C -1.4147691749138782 -0.7990019747680621 -1.4874716708291584 -0.9452829002843485 -1.6140440884166036 -1.0420735725571009 C -1.6149200221023299 -1.0429495062428271 -1.615357988945193 -1.0433874730856902 -1.6162339226309195 -1.0438254399285534 C -1.7042652580464093 -1.1103964000437496 -1.8093773003335607 -1.1458717143156634 -1.9206208784207965 -1.1458717143156634 C -2.122085626137838 -1.1458717143156634 -2.304279832768901 -1.0263067662140282 -2.384865731855717 -0.8410467916829231 C -2.3962528697701586 -0.8152067479539982 -2.405012206627421 -0.7889287373822103 -2.412019676113231 -0.7617747931246961 C -2.4593200951424494 -0.7398764509815394 -2.4895398073000057 -0.6930139987951842 -2.4895398073000057 -0.6400200108087452 C -2.4895398073000057 -0.5660036143648758 -2.4295383498277565 -0.5060021568926266 -2.355521953383887 -0.5060021568926266 C -2.2815055569400178 -0.5060021568926266 -2.2215040994677686 -0.5660036143648757 -2.2215040994677686 -0.6400200108087452 C -2.2215040994677686 -0.6803129603521534 -2.2398987068680203 -0.7184160756812459 -2.2705563858684394 -0.7438181525673075 C -2.2245698673678103 -0.8979824812551302 -2.0826686102801557 -1.0048463909137346 -1.9206208784207965 -1.0048463909137346 C -1.8409109130197063 -1.0048463909137346 -1.7651426492043842 -0.979444314027673 -1.70163745698923 -0.9312679613127284 C -1.6092264531451093 -0.8616312332974903 -1.555794498315807 -0.755205290481749 -1.555794498315807 -0.6400200108087452 C -1.555794498315807 -0.43899322993456724 -1.7195940975466186 -0.27519363070375547 -1.9210588452636597 -0.27519363070375547 C -1.9587239937498893 -0.27519363070375547 -1.9902576064360347 -0.2445359517033362 -1.9906955732788976 -0.20687080321710694 C -1.9911335401217611 -0.1801548258024558 -1.9911335401217611 -0.15343884838780475 -1.9911335401217611 -0.15343884838780475 L -1.9911335401217611 0.04145639668628931 C -2.1501155040810778 0.04539809827205743 -2.305155766454627 0.06291677198658285 -2.450560758285187 0.09269851730127576 C -2.4794665699141536 0.09883005310135973 -2.507934414700258 0.10496158890144347 -2.535964292643498 0.11196905838725368 C -2.688814720802731 0.14919624003061993 -2.82984004420466 0.2008763274884695 -2.952032793363474 0.2648194865464868 C -2.9892599750068403 0.2845279944753276 -3.024735289278754 0.304674469247032 -3.057582802493489 0.32613484454732533 C -3.057582802493489 0.32613484454732533 -3.058020769336352 0.3265728113901887 -3.0584587361792153 0.3265728113901887 C -3.0584587361792153 0.3265728113901887 -3.0588967030220786 0.3270107782330518 -3.0593346698649415 0.3270107782330518 C -3.0654662056650253 0.3309524798188199 -3.0715977414651094 0.33489418140458826 -3.077729277265193 0.33927384983321973 C -3.1000655862512128 0.35416472249056596 -3.121087994708643 0.36949356199077554 -3.1412344694803473 0.3852603683338487 C -3.18634505429525 0.42292551682007806 -3.2402149759674153 0.4781093390208324 -3.27437638971074 0.5477460670360708 C -3.2774421576107815 0.5534396359932916 -3.2800699586679603 0.5591332049505124 -3.2826977597251394 0.5648267739077331 L -3.2826977597251394 0.5652647407505962 L -3.3002164334396644 0.6165068613655826 L -3.4154017131126686 0.9502375956272899 C -3.4600743310847077 1.0794378142719137 -3.440365823155867 1.2178353366166637 -3.360655857754777 1.3290789147038995 C -3.3308741124400836 1.370685764775897 -3.294960831325307 1.4057231122049474 -3.2542299149390357 1.4333150233053245 C -3.215250865924217 1.4595930338771128 -3.1718921484807665 1.4793015418059536 -3.1259056299801378 1.4911266465632582 C -3.1259056299801378 1.4911266465632582 -3.1254676631372744 1.4911266465632582 -3.1254676631372744 1.4911266465632582 C -3.114518492065696 1.4941924144633008 -3.1035693209941178 1.4963822486776166 -3.0921821830796765 1.4981341160490687 C -3.0685319735650674 1.502075817634837 -3.044881764050458 1.5042656518491524 -3.0203556208501228 1.5042656518491524 C -3.0063406818785023 1.5042656518491524 -2.9927637097497453 1.5033897181634261 -2.979186737620988 1.502075817634837 C -2.8534902537192695 1.4898127460346695 -2.7426846424748965 1.4228038190766095 -2.6743618149882478 1.3216334783752257 C -2.668230279188164 1.3303928152324886 -2.6620987433880803 1.3387141852468878 -2.6559672075879965 1.346597588418425 C -2.576257242186906 1.4464540285912186 -2.457130260928134 1.503827685006289 -2.3292439428120995 1.503827685006289 L -2.256103480053956 1.503827685006289 C -2.1181439245520695 1.503827685006289 -1.9955132085503922 1.436380791205367 -1.9193069778922072 1.3330206162896678 C -1.8431007472340222 1.436380791205367 -1.720470031232345 1.503827685006289 -1.5825104757304584 1.503827685006289 L -1.5093700129723153 1.503827685006289 C -1.3814836948562808 1.503827685006289 -1.2623567135975087 1.4464540285912186 -1.1826467481964187 1.346597588418425 C -1.1760772455534716 1.3382762184040253 -1.1699457097533874 1.3299548483896262 -1.163814173953304 1.3216334783752257 C -1.095491346466655 1.4228038190766095 -0.9855616689080087 1.489812746034669 -0.859427218163427 1.502075817634837 C -0.859427218163427 1.502075817634837 -0.8589892513205637 1.502075817634837 -0.8589892513205637 1.502075817634837 C -0.8454122791918066 1.5033897181634261 -0.8318353070630495 1.5042656518491524 -0.8178203680914291 1.5042656518491524 C -0.7932942248910937 1.5042656518491524 -0.7692060485336212 1.502075817634837 -0.7459938058618754 1.4981341160490687 C -0.735044634790297 1.4963822486776166 -0.7236574968758558 1.4937544476204374 -0.7131462926471404 1.4911266465632582 C -0.712708325804277 1.4911266465632582 -0.712708325804277 1.4911266465632582 -0.7122703589614141 1.4911266465632582 C -0.6662838404607854 1.4793015418059536 -0.6229251230173349 1.4600310007199757 -0.5839460740025162 1.4333150233053245 C -0.543215157616245 1.4057231122049474 -0.5073018765014683 1.370685764775897 -0.4775201311867754 1.3290789147038995 C -0.3986860994714103 1.2178353366166637 -0.3789775915425695 1.0798757811147766 -0.4236502095146091 0.9502375956272899 Z M -2.7365531066748128 0.9940342799136033 L -2.770714520418137 1.1433809733299316 C -2.7720284209467265 1.148636575444289 -2.773342321475316 1.1534542107157832 -2.7746562220039053 1.1587098128301412 C -2.7961165973041986 1.2327262092740103 -2.848672618447775 1.290975799374807 -2.916119512248697 1.3207575446895 C -2.9476531249348428 1.3347724836611203 -2.9831284392067565 1.342655886832657 -3.0199176540072594 1.342655886832657 C -3.0199176540072594 1.342655886832657 -3.0199176540072594 1.342655886832657 -3.0203556208501228 1.342655886832657 C -3.0203556208501228 1.342655886832657 -3.0203556208501228 1.342655886832657 -3.0203556208501228 1.342655886832657 C -3.045319730893321 1.342655886832657 -3.0694079072507936 1.3391521520897516 -3.0921821830796765 1.332582649446805 C -3.094372017293992 1.3321446826039411 -3.096123884665445 1.3312687489182153 -3.0983137188797603 1.3308307820753524 C -3.1079489894227494 1.3277650141753103 -3.1171462931228753 1.3242612794324053 -3.1259056299801378 1.3203195778466374 C -3.166198579523546 1.3023629372892491 -3.20167389379546 1.273457125660282 -3.2283898712101107 1.23535401033119 C -3.2384631085959628 1.2209011045167066 -3.2472224454532252 1.2060102318593595 -3.2542299149390357 1.19068139235915 C -3.2805079255108236 1.1319938354154904 -3.2835736934108657 1.0662988089860204 -3.262113318110572 1.0036695504565925 L -3.147366005280431 0.6716906835663374 C -3.147366005280431 0.6716906835663374 -3.147366005280431 0.6712527167234739 -3.146928038437568 0.6699388161948847 C -3.146928038437568 0.6695008493520214 -3.146490071594705 0.6690628825091585 -3.146490071594705 0.6681869488234322 C -3.146052104751842 0.6677489819805691 -3.146052104751842 0.6668730482948431 -3.146052104751842 0.6664350814519797 L -3.1386066684231686 0.6454126729945495 C -3.1386066684231686 0.6449747061516864 -3.1386066684231686 0.6449747061516864 -3.1381687015803057 0.6445367393088233 L -3.1000655862512128 0.534607061750177 C -3.0983137188797603 0.5328551943787245 -3.0965618515083078 0.5311033270072718 -3.0948099841368553 0.5297894264786824 C -3.069845874093657 0.5074531174926626 -3.0426919298361423 0.4859927421923691 -3.0129101845214494 0.4654083005778018 C -3.001523046607008 0.45708693056340244 -2.9892599750068403 0.449203527391866 -2.976996903406673 0.44132012422032973 C -2.976996903406673 0.44132012422032973 -2.9765589365638094 0.44132012422032973 -2.9765589365638094 0.44088215737746617 C -2.9704274007637257 0.43694045579169827 -2.964295864963642 0.4329987542059299 -2.957726362320695 0.4290570526201616 C -2.934952086491812 0.4154800804914045 -2.9113018769772028 0.4019031083626474 -2.8867757337768674 0.3887641030767537 C -2.7921748957184307 0.33927384983321973 -2.686186919745553 0.29810496660408514 -2.5710016400725486 0.26569542023221326 L -2.571439606915412 0.26700932076080264 C -2.571439606915412 0.26700932076080264 -2.571439606915412 0.26700932076080264 -2.5710016400725486 0.26700932076080264 L -2.7365531066748128 0.9940342799136033 Z M -2.000330843821887 1.086883250600587 L -2.000330843821887 1.086883250600587 C -2.000330843821887 1.1118473606437853 -2.003834578564792 1.1359355370012578 -2.010842048050602 1.1587098128301412 C -2.0323024233508953 1.2314123087454207 -2.084858444494471 1.290537832531944 -2.1531812719811203 1.3207575446895 C -2.1847148846672657 1.3347724836611203 -2.219752232096316 1.342655886832657 -2.256103480053956 1.342655886832657 L -2.3292439428120995 1.342655886832657 C -2.3655951907697395 1.342655886832657 -2.4006325381987903 1.3352104505039828 -2.433042084570662 1.3207575446895 C -2.4702692662140278 1.3045527715035636 -2.5031167794287628 1.2791506946175024 -2.529394790000551 1.2463031814027674 C -2.550417198457981 1.2200251708309795 -2.565746037958191 1.1902434255162866 -2.574943341658317 1.1587098128301412 C -2.5872064132584844 1.1175409296010066 -2.5885203137870736 1.07330627847183 -2.578885043244085 1.02994756102838 L -2.4023844055702424 0.2547462491606354 L -2.3958149029272953 0.22540247068880537 C -2.270118419025576 0.20131429433133308 -2.137414465638047 0.18686138851684975 -2.0007688106647494 0.1829196869310814 L -2.0007688106647494 0.1829196869310814 C -2.0007688106647494 0.1829196869310814 -2.0003308438218865 0.1829196869310814 -2.0003308438218865 0.1829196869310814 L -2.0003308438218865 1.086883250600587 Z M -1.2636706141260974 1.1587098128301412 C -1.2728679178262232 1.1902434255162866 -1.2881967573264328 1.2200251708309795 -1.3092191657838632 1.2463031814027674 C -1.3354971763556511 1.2791506946175024 -1.3683446895703861 1.3045527715035636 -1.4055718712137524 1.3207575446895 C -1.437981417585624 1.3352104505039828 -1.4730187650146747 1.342655886832657 -1.5093700129723149 1.342655886832657 L -1.509807979815178 1.342655886832657 L -1.5825104757304582 1.342655886832657 L -1.5829484425733213 1.342655886832657 C -1.5965254147020786 1.342655886832657 -1.6101023868308355 1.3413419863040674 -1.6232413921167297 1.339590118932615 C -1.6320007289739922 1.3382762184040253 -1.6407600658312549 1.33608638418971 -1.6490814358456543 1.333896549975394 C -1.661782474288685 1.330392815232489 -1.6740455458888528 1.3260131468038578 -1.6858706506461574 1.3207575446895 C -1.6902503190747886 1.3190056773180479 -1.6941920206605567 1.316815843103732 -1.698571689089188 1.3146260088894162 C -1.7152144291179872 1.306304638875017 -1.7305432686181967 1.295793434646302 -1.7449961744326803 1.2844062967318604 C -1.7484999091755855 1.2813405288318183 -1.7520036439184905 1.2782747609317766 -1.7555073786613953 1.275208993031734 C -1.7690843507901526 1.262945921431567 -1.78134742239032 1.2489309824599466 -1.7918586266190353 1.2336021429597366 C -1.7944864276762142 1.2296604413739687 -1.7971142287333928 1.2261567066310632 -1.7997420297905717 1.2222150050452953 C -1.8093773003335607 1.2064481987022224 -1.8176986703479603 1.1898054586734237 -1.8242681729909072 1.171848818116035 C -1.8260200403623597 1.1674691496874037 -1.8273339408909492 1.1630894812587724 -1.8286478414195386 1.1582718459872774 C -1.8352173440624857 1.1354975701583945 -1.8387210788053907 1.1114093938009224 -1.8387210788053907 1.086445283757724 L -1.8387210788053907 0.18291968693108096 C -1.8387210788053907 0.18291968693108096 -1.8382831119625276 0.18291968693108096 -1.8382831119625276 0.18291968693108096 L -1.8382831119625276 0.18291968693108096 C -1.70163745698923 0.18729935535971243 -1.5684955367588378 0.20175226117419598 -1.443237019699982 0.22584043753166827 L -1.4366675170570349 0.25474624916063493 L -1.2601668793831924 1.02994756102838 C -1.2500936419973407 1.07330627847183 -1.25140754252593 1.1175409296010061 -1.2636706141260974 1.1587098128301412 Z M -0.584822007688242 1.1902434255162861 C -0.591829477174052 1.2055722650164957 -0.6001508471884511 1.2209011045167053 -0.6106620514171666 1.2349160434883262 C -0.6378159956746807 1.2725811919745553 -0.6728533431037316 1.301487003603522 -0.7135842594900028 1.3198816110037737 C -0.7223435963472653 1.3238233125895416 -0.7315409000473911 1.327327047332447 -0.7411761705903799 1.3303928152324886 C -0.7433660048046957 1.331268748918215 -0.7451178721761478 1.3317067157610778 -0.7473077063904636 1.3321446826039407 C -0.7705199490622099 1.3387141852468878 -0.7941701585768195 1.3422179199897928 -0.8191342686200174 1.3422179199897928 C -0.8559234834205203 1.3422179199897928 -0.8909608308495711 1.3347724836611194 -0.9229324103785803 1.3203195778466361 C -0.9903793041795019 1.2905378325319432 -1.0429353253230782 1.2322882424311465 -1.0643957006233715 1.1582718459872774 C -1.066147567994824 1.1534542107157828 -1.0674614685234136 1.1481986086014253 -1.0683374022091399 1.1429430064870674 L -1.102498815952464 0.993596313070739 L -1.2676123157118648 0.2670093207608022 C -1.1537409365674498 0.29941886713267385 -1.0481909274374357 0.3401497835189453 -0.9544660230647248 0.38920206991961614 C -0.9027859356068753 0.4163560141771303 -0.8554855165776569 0.4452618258060972 -0.8134406996627956 0.47591950480651635 C -0.8134406996627956 0.47591950480651635 -0.8134406996627956 0.47591950480651635 -0.8130027328199323 0.47591950480651635 C -0.7867247222481448 0.49475207904963114 -0.7630745127335357 0.5144605869784722 -0.7407382037475156 0.5346070617501761 C -0.7394243032189269 0.5359209622787657 -0.7381104026903369 0.5367968959644918 -0.7372344690046111 0.5381107964930814 L -0.6973794863040657 0.6537340430089482 C -0.6960655857754765 0.6576757445947161 -0.6947516852468865 0.6611794793376216 -0.6938757515611607 0.6638072803948003 L -0.6912479505039819 0.6716906835663368 L -0.5769386045167044 1.0027936167708653 C -0.5550402623735491 1.0658608421431566 -0.5585439971164541 1.13199383541549 -0.584822007688242 1.1902434255162861 Z" fill="#1c3423" transform="matrix(1,0,0,1,0,0)" fill-rule="nonzero"></path></g><g clip-path="url(#SvgjsClipPath120746534853e1-f5d8-4bfc-ac78-5fbb0cd8796f)"><path d=" M -3.091744216236813 1.3325826494468045 C -3.093934050451129 1.3321446826039407 -3.0956859178225815 1.331268748918215 -3.0978757520368974 1.330830782075352 C -3.107511022579886 1.3277650141753095 -3.116708326280012 1.324261279432405 -3.1254676631372744 1.320319577846637 C -3.1657606126806828 1.3023629372892482 -3.2012359269525965 1.2734571256602811 -3.2279519043672478 1.235354010331189 C -3.2380251417530994 1.2209011045167057 -3.2467844786103623 1.206010231859359 -3.2537919480961723 1.1906813923591495 C -3.2800699586679603 1.13199383541549 -3.2831357265680023 1.06629880898602 -3.261675351267709 1.0036695504565916 L -3.147366005280431 0.6716906835663374 L -3.262113318110572 1.0036695504565916 C -3.2835736934108652 1.06629880898602 -3.2805079255108236 1.13199383541549 -3.2542299149390357 1.1906813923591495 C -3.2472224454532252 1.206010231859359 -3.2384631085959628 1.2209011045167053 -3.2283898712101107 1.235354010331189 C -3.20167389379546 1.273457125660282 -3.166198579523546 1.3023629372892482 -3.1259056299801378 1.320319577846637 C -3.1171462931228753 1.324261279432405 -3.1079489894227494 1.3277650141753103 -3.0983137188797603 1.330830782075352 C -3.096123884665445 1.331268748918215 -3.094372017293992 1.3321446826039407 -3.0921821830796765 1.3325826494468045 C -3.0694079072507936 1.3391521520897516 -3.045319730893321 1.3426558868326566 -3.0203556208501228 1.3426558868326566 C -3.0203556208501228 1.3426558868326566 -3.0203556208501228 1.3426558868326566 -3.0203556208501228 1.3426558868326566 C -3.044881764050458 1.342655886832657 -3.0689699404079303 1.3391521520897516 -3.091744216236813 1.3325826494468045 Z" fill="#faecd3" transform="matrix(1,0,0,1,0,0)" fill-rule="nonzero"></path></g><g clip-path="url(#SvgjsClipPath120746534853e1-f5d8-4bfc-ac78-5fbb0cd8796f)"><path d=" M -2.5710016400725486 0.26569542023221326 C -2.686186919745553 0.2981049666040849 -2.7921748957184307 0.33927384983321973 -2.8867757337768674 0.3887641030767537 C -2.7921748957184307 0.3405877503618089 -2.6861869197455523 0.29941886713267474 -2.571439606915412 0.26700932076080264 L -2.5710016400725486 0.26569542023221326 Z" fill="#faecd3" transform="matrix(1,0,0,1,0,0)" fill-rule="nonzero"></path></g><g clip-path="url(#SvgjsClipPath120746534853e1-f5d8-4bfc-ac78-5fbb0cd8796f)"><path d=" M -1.4366675170570349 0.25474624916063493 L -1.2601668793831924 1.02994756102838 C -1.2601668793831924 1.02994756102838 -1.2601668793831924 1.02994756102838 -1.2601668793831924 1.02994756102838 C -1.2601668793831924 1.02994756102838 -1.2601668793831924 1.02994756102838 -1.2601668793831924 1.02994756102838 L -1.4366675170570349 0.25474624916063493 L -1.443237019699982 0.22584043753166827 C -1.490099471886337 0.2166431338315422 -1.5382758246012818 0.2091976975028691 -1.5873281110019526 0.202628194859922 C -1.5382758246012818 0.20875973066000597 -1.490099471886337 0.2166431338315422 -1.443237019699982 0.22584043753166827 L -1.4366675170570349 0.25474624916063493 Z" fill="#faecd3" transform="matrix(1,0,0,1,0,0)" fill-rule="nonzero"></path></g><g clip-path="url(#SvgjsClipPath120746534853e1-f5d8-4bfc-ac78-5fbb0cd8796f)"><path d=" M -1.2768096194119916 1.1933091934163282 C -1.2803133541548966 1.2007546297450016 -1.284255055740665 1.208200066073675 -1.2881967573264328 1.215207535559485 C -1.284255055740665 1.208200066073675 -1.2803133541548966 1.2007546297450016 -1.2768096194119916 1.1933091934163282 Z" fill="#faecd3" transform="matrix(1,0,0,1,0,0)" fill-rule="nonzero"></path></g><g clip-path="url(#SvgjsClipPath120746534853e1-f5d8-4bfc-ac78-5fbb0cd8796f)"><path d=" M -1.2680502825547286 1.1705349175874453 C -1.2667363820261395 1.166593216001677 -1.2654224814975499 1.162651514415909 -1.2641085809689607 1.1587098128301403 C -1.2641085809689607 1.1587098128301403 -1.2641085809689607 1.1582718459872774 -1.2641085809689607 1.1582718459872774 C -1.2641085809689607 1.1582718459872774 -1.2641085809689607 1.1587098128301403 -1.2641085809689607 1.1587098128301403 C -1.2654224814975503 1.162651514415909 -1.2662984151832761 1.166593216001677 -1.2680502825547286 1.1705349175874453 Z" fill="#faecd3" transform="matrix(1,0,0,1,0,0)" fill-rule="nonzero"></path></g><g clip-path="url(#SvgjsClipPath120746534853e1-f5d8-4bfc-ac78-5fbb0cd8796f)"><path d=" M -1.5098079798151782 1.342655886832657 C -1.4962310076864211 1.342655886832657 -1.482654035557664 1.3413419863040674 -1.46951503027177 1.339590118932615 C -1.4826540355576638 1.341341986304067 -1.4962310076864211 1.342655886832657 -1.5098079798151782 1.342655886832657 Z" fill="#faecd3" transform="matrix(1,0,0,1,0,0)" fill-rule="nonzero"></path></g><g clip-path="url(#SvgjsClipPath120746534853e1-f5d8-4bfc-ac78-5fbb0cd8796f)"><path d=" M -1.2680502825547286 1.1705349175874453 C -1.2706780836119078 1.1784183207589811 -1.2737438515119495 1.185863757087655 -1.277247586254855 1.1933091934163282 C -1.2737438515119495 1.185863757087655 -1.2706780836119078 1.178418320758982 -1.2680502825547286 1.1705349175874453 Z" fill="#faecd3" transform="matrix(1,0,0,1,0,0)" fill-rule="nonzero"></path></g><g clip-path="url(#SvgjsClipPath120746534853e1-f5d8-4bfc-ac78-5fbb0cd8796f)"><path d=" M -1.7191561307037553 2.2593204889451934 C -1.7195940975466188 2.2536269199879726 -1.7209079980752078 2.248371317873615 -1.7230978322895236 2.24355368260212 C -1.724411732818113 2.2404879147020784 -1.7261636001895655 2.2369841799591734 -1.7283534344038811 2.2343563789019942 C -1.731419202303923 2.2299767104733625 -1.7349229370468282 2.226035008887595 -1.738864638632596 2.222531274144689 C -1.748499909175585 2.2146478709731534 -1.7603250139328896 2.2098302357016584 -1.7734640192187834 2.2098302357016584 L -2.0651499365656294 2.2098302357016584 C -2.0953696487231857 2.2098302357016584 -2.1198957919235215 2.2343563789019942 -2.1198957919235215 2.26457609105955 L -2.1198957919235215 3.086639855113651 L -1.7187181638608917 3.086639855113651 L -1.7187181638608917 2.2650140579024134 C -1.7187181638608924 2.263262190530961 -1.7187181638608924 2.261072356316645 -1.7191561307037553 2.2593204889451934 Z" fill="#a4c868" transform="matrix(1,0,0,1,0,0)" fill-rule="nonzero"></path></g><g clip-path="url(#SvgjsClipPath120746534853e1-f5d8-4bfc-ac78-5fbb0cd8796f)"><path d=" M -1.1638141739533037 1.322071445218089 C -1.1699457097533874 1.3303928152324886 -1.1760772455534707 1.3387141852468878 -1.1826467481964178 1.3470355552612883 C -1.2623567135975082 1.446891995434082 -1.3814836948562799 1.5042656518491524 -1.509370012972315 1.5042656518491524 L -1.5825104757304582 1.5042656518491524 C -1.7204700312323449 1.5042656518491524 -1.843100747234022 1.43681875804823 -1.9193069778922072 1.3334585831325307 C -1.9955132085503922 1.43681875804823 -2.1181439245520695 1.5042656518491524 -2.256103480053956 1.5042656518491524 L -2.3292439428120995 1.5042656518491524 C -2.457130260928134 1.5042656518491524 -2.576257242186906 1.446891995434082 -2.655967207587996 1.3470355552612883 C -2.6620987433880803 1.3391521520897516 -2.668230279188164 1.330830782075352 -2.6743618149882478 1.322071445218089 C -2.7426846424748965 1.4232417859194728 -2.853490253719269 1.490250712877532 -2.979186737620988 1.5025137844777003 L -2.979186737620988 2.995104784955257 C -2.979186737620988 3.04590893872738 -2.9380178543918536 3.0870778219565143 -2.8872137006197303 3.0870778219565143 L -2.266614684282671 3.0870778219565143 L -2.266614684282671 2.230414677316226 C -2.266614684282671 2.1384416403149684 -2.1917223541530753 2.0635493101853726 -2.099749317151818 2.0635493101853726 L -1.7393026054754597 2.0635493101853726 C -1.6473295684742018 2.0635493101853726 -1.5724372383446061 2.1384416403149684 -1.5724372383446061 2.230414677316226 L -1.5724372383446061 3.0870778219565143 L -0.9514002551646836 3.0870778219565143 C -0.9005961013925603 3.0870778219565143 -0.8594272181634257 3.04590893872738 -0.8594272181634257 2.995104784955257 L -0.8594272181634257 1.5025137844777003 C -0.9855616689080082 1.4906886797203953 -1.0959293133095178 1.4232417859194728 -1.1638141739533037 1.322071445218089 Z" fill="#faecd3" transform="matrix(1,0,0,1,0,0)" fill-rule="nonzero"></path></g><g clip-path="url(#SvgjsClipPath120746534853e1-f5d8-4bfc-ac78-5fbb0cd8796f)"><path d=" M -1.4060098380566157 1.3207575446895 C -1.3687826564132495 1.3045527715035636 -1.3359351431985145 1.2791506946175024 -1.3096571326267266 1.2463031814027674 C -1.3017737294551899 1.2366679108597782 -1.2947662599693799 1.2261567066310632 -1.2886347241692961 1.215207535559485 C -1.284255055740665 1.208200066073675 -1.2807513209977595 1.2007546297450016 -1.2772475862548545 1.1933091934163282 C -1.2737438515119495 1.185863757087655 -1.2706780836119074 1.1779803539161187 -1.2680502825547286 1.1705349175874453 C -1.266736382026139 1.166593216001677 -1.2654224814975499 1.162651514415909 -1.2641085809689603 1.1587098128301403 C -1.2641085809689603 1.1587098128301403 -1.2641085809689603 1.1582718459872774 -1.2641085809689603 1.1582718459872774 C -1.2518455093687928 1.1171029627581428 -1.2500936419973403 1.0733062784718295 -1.2601668793831924 1.0299475610283795 C -1.2601668793831924 1.0299475610283795 -1.2601668793831924 1.0299475610283795 -1.2601668793831924 1.0299475610283795 L -1.4366675170570349 0.2547462491606345 L -1.443237019699982 0.2258404375316676 C -1.490099471886337 0.21664313383154155 -1.5382758246012818 0.20919769750286843 -1.5873281110019526 0.20262819485992156 C -1.6687899437744953 0.19211699063120635 -1.7528795776042165 0.18554748798825949 -1.8378451451196642 0.18291968693108074 C -1.8378451451196642 0.18291968693108074 -1.8382831119625276 0.18291968693108074 -1.8382831119625276 0.18291968693108074 L -1.8382831119625276 1.0868832506005865 C -1.8382831119625276 1.1118473606437849 -1.8347793772196226 1.1359355370012574 -1.8282098745766755 1.1587098128301399 C -1.826895974048086 1.163089481258771 -1.8255820735194965 1.1679071165302657 -1.823830206148044 1.1722867849588974 C -1.8176986703479603 1.1898054586734224 -1.8093773003335607 1.2068861655450844 -1.7993040629477086 1.2226529718881574 C -1.7966762618905296 1.2265946734739257 -1.794486427676214 1.2305363750596936 -1.7914206597761722 1.234040109802599 C -1.7809094555474572 1.2489309824599453 -1.7686463839472895 1.2629459214315657 -1.7550694118185322 1.2756469598745965 C -1.7515656770756272 1.2787127277746386 -1.7480619423327217 1.2817784956746803 -1.744558207589817 1.2848442635747224 C -1.7301053017753336 1.2966693683320274 -1.714776462275124 1.306742605717879 -1.6981337222463249 1.3150639757322786 C -1.6941920206605567 1.317253809946594 -1.6898123522319253 1.319005677318047 -1.6854326838032943 1.321195511532362 C -1.6736075790459897 1.3264511136467203 -1.6613445074458217 1.330830782075351 -1.6486434690027911 1.334334516818256 C -1.6403220989883915 1.336524351032572 -1.631562762131129 1.3387141852468878 -1.6228034252738663 1.340028085775477 C -1.6096644199879724 1.3422179199897928 -1.596087447859215 1.343093853675519 -1.5825104757304582 1.343093853675519 L -1.582072508887595 1.343093853675519 L -1.5093700129723149 1.343093853675519 C -1.4957930408435576 1.343093853675519 -1.4822160687148007 1.3417799531469294 -1.4690770634289065 1.340028085775477 C -1.4471787212857503 1.33608638418971 -1.42615631282832 1.3295168815467628 -1.4060098380566157 1.3207575446895 Z" fill="#67a97b" transform="matrix(1,0,0,1,0,0)" fill-rule="nonzero"></path></g><g clip-path="url(#SvgjsClipPath120746534853e1-f5d8-4bfc-ac78-5fbb0cd8796f)"><path d=" M -2.3958149029272953 0.22540247068880492 L -2.402384405570243 0.25474624916063493 L -2.578885043244085 1.02994756102838 C -2.5885203137870736 1.07330627847183 -2.5872064132584844 1.1175409296010061 -2.574943341658317 1.1587098128301412 C -2.565746037958191 1.1902434255162866 -2.550417198457981 1.2200251708309795 -2.529394790000551 1.2463031814027674 C -2.5031167794287628 1.2791506946175024 -2.4702692662140278 1.3045527715035636 -2.433042084570662 1.3207575446895 C -2.40063253819879 1.3352104505039828 -2.3655951907697395 1.342655886832657 -2.3292439428120995 1.342655886832657 L -2.256103480053956 1.342655886832657 C -2.219752232096316 1.342655886832657 -2.1847148846672657 1.3347724836611203 -2.1531812719811203 1.3207575446895 C -2.084858444494471 1.290537832531944 -2.0323024233508953 1.2314123087454207 -2.010842048050602 1.1587098128301412 C -2.003834578564792 1.1359355370012578 -2.000330843821887 1.1118473606437853 -2.000330843821887 1.0868832506005874 L -2.000330843821887 1.0868832506005874 L -2.000330843821887 0.18291968693108096 C -2.000330843821887 0.18291968693108096 -2.0007688106647503 0.18291968693108096 -2.0007688106647503 0.18291968693108096 C -2.1378524324809103 0.18686138851684952 -2.270118419025576 0.20131429433133285 -2.3958149029272953 0.22540247068880492 Z" fill="#67a97b" transform="matrix(1,0,0,1,0,0)" fill-rule="nonzero"></path></g><g clip-path="url(#SvgjsClipPath120746534853e1-f5d8-4bfc-ac78-5fbb0cd8796f)"><path d=" M -2.571439606915412 0.26700932076080264 C -2.6866248865884157 0.2994188671326745 -2.7921748957184307 0.3405877503618089 -2.8867757337768674 0.3887641030767537 C -2.9113018769772028 0.4019031083626474 -2.934952086491812 0.4154800804914047 -2.957726362320695 0.4290570526201616 C -2.964295864963642 0.4329987542059299 -2.9704274007637257 0.43694045579169827 -2.9765589365638094 0.44088215737746617 C -2.9765589365638094 0.44132012422032973 -2.976996903406673 0.44132012422032973 -2.976996903406673 0.44132012422032973 C -2.9892599750068403 0.449203527391866 -3.0015230466070077 0.45708693056340244 -3.0129101845214494 0.4654083005778018 C -3.0426919298361423 0.4859927421923691 -3.0698458740936565 0.5074531174926629 -3.0948099841368553 0.5297894264786824 C -3.0965618515083078 0.5311033270072718 -3.0983137188797603 0.5328551943787243 -3.1000655862512128 0.534607061750177 L -3.1381687015803053 0.6445367393088233 C -3.1386066684231686 0.6449747061516866 -3.1386066684231686 0.6449747061516866 -3.1386066684231686 0.6454126729945495 L -3.146052104751842 0.6664350814519797 C -3.146052104751842 0.6668730482948433 -3.146052104751842 0.6677489819805693 -3.146490071594705 0.6681869488234322 C -3.146490071594705 0.6690628825091585 -3.146928038437568 0.6695008493520218 -3.146928038437568 0.6699388161948847 C -3.147366005280431 0.6712527167234741 -3.147366005280431 0.6716906835663374 -3.147366005280431 0.6716906835663374 L -3.2616753512677086 1.0036695504565916 C -3.2831357265680023 1.06629880898602 -3.2800699586679603 1.13199383541549 -3.2537919480961723 1.1906813923591495 C -3.2467844786103623 1.206010231859359 -3.2380251417530994 1.2209011045167053 -3.2279519043672478 1.235354010331189 C -3.2012359269525965 1.273457125660282 -3.1657606126806828 1.3023629372892482 -3.1254676631372744 1.320319577846637 C -3.116708326280012 1.324261279432405 -3.107511022579886 1.3277650141753103 -3.0978757520368974 1.330830782075352 C -3.0956859178225815 1.331268748918215 -3.093934050451129 1.3321446826039407 -3.091744216236813 1.3325826494468045 C -3.0689699404079303 1.3391521520897516 -3.044881764050458 1.3426558868326566 -3.0203556208501228 1.3426558868326566 C -3.0203556208501228 1.3426558868326566 -3.0203556208501228 1.3426558868326566 -3.0199176540072594 1.3426558868326566 C -2.9831284392067565 1.3426558868326566 -2.9476531249348428 1.33477248366112 -2.916119512248697 1.3207575446894995 C -2.848672618447775 1.2909757993748066 -2.7961165973041986 1.2327262092740094 -2.7746562220039053 1.1587098128301403 C -2.773342321475316 1.1534542107157828 -2.7720284209467265 1.1486365754442887 -2.770714520418137 1.1433809733299307 L -2.7365531066748128 0.9940342799136024 L -2.571439606915412 0.26700932076080264 C -2.5710016400725486 0.26700932076080264 -2.5710016400725486 0.26700932076080264 -2.571439606915412 0.26700932076080264 Z" fill="#67a97b" transform="matrix(1,0,0,1,0,0)" fill-rule="nonzero"></path></g><g clip-path="url(#SvgjsClipPath120746534853e1-f5d8-4bfc-ac78-5fbb0cd8796f)"><path d=" M -0.6912479505039832 0.6716906835663374 L -0.6938757515611624 0.6638072803948007 C -0.6947516852468887 0.6611794793376218 -0.6960655857754783 0.657675744594717 -0.697379486304067 0.6537340430089487 L -0.7372344690046124 0.5381107964930818 C -0.7381104026903387 0.5367968959644922 -0.7394243032189278 0.5359209622787662 -0.7407382037475174 0.5346070617501768 C -0.763074512733537 0.5144605869784724 -0.7867247222481462 0.49475207904963137 -0.8130027328199341 0.475919504806517 C -0.8134406996627974 0.475919504806517 -0.8134406996627974 0.475919504806517 -0.8134406996627974 0.475919504806517 C -0.8554855165776583 0.44526182580609763 -0.9027859356068766 0.41635601417713075 -0.9544660230647266 0.3892020699196166 C -1.0481909274374366 0.34014978351894576 -1.1537409365674516 0.2994188671326745 -1.2676123157118662 0.26700932076080264 L -1.102498815952465 0.9935963130707395 L -1.0683374022091408 1.1429430064870678 C -1.067461468523414 1.1481986086014258 -1.066147567994825 1.1534542107157832 -1.0643957006233724 1.1582718459872774 C -1.042935325323079 1.232288242431147 -0.9903793041795033 1.290537832531944 -0.9229324103785808 1.320319577846637 C -0.8909608308495724 1.33477248366112 -0.855923483420522 1.3422179199897932 -0.8191342686200183 1.3422179199897932 C -0.7941701585768195 1.3422179199897932 -0.7705199490622103 1.3387141852468882 -0.747307706390465 1.3321446826039411 C -0.7451178721761491 1.3317067157610782 -0.7433660048046962 1.331268748918215 -0.7411761705903812 1.330392815232489 C -0.731540900047392 1.327327047332447 -0.7223435963472662 1.323823312589542 -0.7135842594900041 1.319881611003774 C -0.6728533431037329 1.301487003603522 -0.6378159956746821 1.2725811919745562 -0.6106620514171675 1.2349160434883262 C -0.6001508471884525 1.2209011045167057 -0.5918294771740533 1.2055722650164962 -0.5848220076882429 1.1902434255162866 C -0.558543997116455 1.1319938354154904 -0.55504026237355 1.065860842143157 -0.5769386045167066 1.0027936167708658 L -0.6912479505039832 0.6716906835663374 Z" fill="#67a97b" transform="matrix(1,0,0,1,0,0)" fill-rule="nonzero"></path></g></g><g><path d=" M 0.5565 0.0930000000000002 Q 0.6555 0.0930000000000002 0.7192500000000001 0.12225000000000019 Q 0.783 0.1515000000000002 0.8325 0.1905000000000001 Q 0.8625 0.2130000000000002 0.87825 0.1957500000000001 Q 0.894 0.1785000000000001 0.9 0.1140000000000001 L 0.9345 0.1140000000000001 Q 0.9315 0.1695000000000002 0.93 0.2490000000000001 Q 0.9285 0.3285000000000001 0.9285 0.4590000000000002 L 0.894 0.4590000000000002 Q 0.8835000000000001 0.3945000000000002 0.8745 0.3562500000000002 Q 0.8655 0.31800000000000017 0.85275 0.29100000000000015 Q 0.84 0.2640000000000001 0.8190000000000001 0.2370000000000001 Q 0.7725 0.1755000000000002 0.7020000000000001 0.14775000000000005 Q 0.6315000000000001 0.1200000000000001 0.5535 0.1200000000000001 Q 0.48 0.1200000000000001 0.42075 0.15675000000000017 Q 0.3615 0.19350000000000012 0.31875000000000003 0.2625000000000002 Q 0.276 0.33150000000000013 0.25275000000000003 0.42900000000000016 Q 0.2295 0.5265000000000002 0.2295 0.6480000000000001 Q 0.2295 0.7740000000000001 0.255 0.8707500000000001 Q 0.2805 0.9675000000000001 0.32625 1.0335 Q 0.372 1.0995000000000001 0.43425 1.13325 Q 0.4965 1.1670000000000003 0.5685 1.1670000000000003 Q 0.636 1.1670000000000003 0.7095 1.1400000000000001 Q 0.783 1.1130000000000002 0.8250000000000001 1.0530000000000002 Q 0.858 1.0095 0.87075 0.9585000000000001 Q 0.8835000000000001 0.9075000000000002 0.894 0.8160000000000002 L 0.9285 0.8160000000000002 Q 0.9285 0.9525000000000001 0.93 1.0357500000000002 Q 0.9315 1.1190000000000002 0.9345 1.1760000000000002 L 0.9 1.1760000000000002 Q 0.894 1.1115000000000002 0.87975 1.0950000000000002 Q 0.8655 1.0785000000000002 0.8325 1.0995000000000001 Q 0.777 1.1385 0.71475 1.16775 Q 0.6525 1.197 0.555 1.197 Q 0.41250000000000003 1.197 0.30525 1.1325 Q 0.198 1.068 0.13875 0.9465000000000001 Q 0.0795 0.8250000000000002 0.0795 0.6540000000000001 Q 0.0795 0.4860000000000001 0.14100000000000001 0.3600000000000001 Q 0.2025 0.2340000000000001 0.30975 0.1635000000000002 Q 0.417 0.0930000000000002 0.5565 0.0930000000000002 M 1.442982421875 0.3825000000000002 Q 1.5389824218750001 0.3825000000000002 1.615482421875 0.4245000000000001 Q 1.6919824218750001 0.46650000000000014 1.737732421875 0.5565000000000001 Q 1.783482421875 0.6465000000000002 1.783482421875 0.7905000000000002 Q 1.783482421875 0.9345000000000001 1.737732421875 1.0237500000000002 Q 1.6919824218750001 1.1130000000000002 1.615482421875 1.1550000000000002 Q 1.5389824218750001 1.197 1.442982421875 1.197 Q 1.348482421875 1.197 1.271232421875 1.1550000000000002 Q 1.193982421875 1.1130000000000002 1.148232421875 1.0237500000000002 Q 1.102482421875 0.9345000000000001 1.102482421875 0.7905000000000002 Q 1.102482421875 0.6465000000000002 1.148232421875 0.5565000000000001 Q 1.193982421875 0.46650000000000014 1.271232421875 0.4245000000000001 Q 1.348482421875 0.3825000000000002 1.442982421875 0.3825000000000002 M 1.442982421875 0.4125000000000001 Q 1.357482421875 0.4125000000000001 1.302732421875 0.5010000000000001 Q 1.247982421875 0.5895000000000001 1.247982421875 0.7905000000000002 Q 1.247982421875 0.9915000000000002 1.302732421875 1.07925 Q 1.357482421875 1.1670000000000003 1.442982421875 1.1670000000000003 Q 1.528482421875 1.1670000000000003 1.583232421875 1.07925 Q 1.6379824218749999 0.9915000000000002 1.6379824218749999 0.7905000000000002 Q 1.6379824218749999 0.5895000000000001 1.583232421875 0.5010000000000001 Q 1.528482421875 0.4125000000000001 1.442982421875 0.4125000000000001 M 2.57994287109375 2.220446049250313e-16 L 2.57994287109375 1.0125000000000002 Q 2.57994287109375 1.08 2.60469287109375 1.1122500000000002 Q 2.62944287109375 1.1445 2.69394287109375 1.1445 L 2.69394287109375 1.1760000000000002 Q 2.64744287109375 1.1715000000000002 2.60094287109375 1.1715000000000002 Q 2.55744287109375 1.1715000000000002 2.5176928710937503 1.1760000000000002 Q 2.47794287109375 1.1805 2.44494287109375 1.1925000000000001 L 2.44494287109375 0.18000000000000016 Q 2.44494287109375 0.11250000000000004 2.42094287109375 0.08025000000000015 Q 2.39694287109375 0.04800000000000004 2.33094287109375 0.04800000000000004 L 2.33094287109375 0.01650000000000018 Q 2.37894287109375 0.02100000000000013 2.4239428710937503 0.02100000000000013 Q 2.46744287109375 0.02100000000000013 2.50719287109375 0.015750000000000153 Q 2.54694287109375 0.010500000000000176 2.57994287109375 2.220446049250313e-16 M 2.26494287109375 0.3825000000000002 Q 2.33094287109375 0.3825000000000002 2.38869287109375 0.41400000000000015 Q 2.4464428710937502 0.4455000000000001 2.46594287109375 0.5220000000000001 L 2.4464428710937502 0.5370000000000001 Q 2.42544287109375 0.4740000000000001 2.38119287109375 0.4455000000000001 Q 2.33694287109375 0.41700000000000015 2.27694287109375 0.41700000000000015 Q 2.1884428710937502 0.41700000000000015 2.1291928710937498 0.5085000000000002 Q 2.06994287109375 0.6000000000000001 2.07144287109375 0.7905000000000002 Q 2.07144287109375 0.9120000000000001 2.09469287109375 0.9922500000000002 Q 2.1179428710937502 1.0725000000000002 2.16369287109375 1.1122500000000002 Q 2.20944287109375 1.1520000000000001 2.27544287109375 1.1520000000000001 Q 2.33844287109375 1.1520000000000001 2.38944287109375 1.098 Q 2.44044287109375 1.044 2.45094287109375 0.9390000000000002 L 2.46894287109375 0.9600000000000002 Q 2.4569428710937498 1.074 2.39619287109375 1.1355000000000002 Q 2.33544287109375 1.197 2.23194287109375 1.197 Q 2.13894287109375 1.197 2.06919287109375 1.1520000000000001 Q 1.99944287109375 1.1070000000000002 1.96269287109375 1.0170000000000001 Q 1.92594287109375 0.9270000000000002 1.92594287109375 0.7905000000000002 Q 1.92594287109375 0.6540000000000001 1.97319287109375 0.5632500000000001 Q 2.02044287109375 0.47250000000000014 2.09769287109375 0.4275000000000001 Q 2.17494287109375 0.3825000000000002 2.26494287109375 0.3825000000000002 M 3.133433349609375 0.3825000000000002 Q 3.265433349609375 0.3825000000000002 3.339683349609375 0.4627500000000001 Q 3.413933349609375 0.5430000000000001 3.413933349609375 0.7125000000000001 L 2.884433349609375 0.7125000000000001 L 2.882933349609375 0.6840000000000002 L 3.269933349609375 0.6840000000000002 Q 3.272933349609375 0.6105000000000002 3.2579333496093748 0.5482500000000001 Q 3.242933349609375 0.4860000000000001 3.210683349609375 0.4485000000000001 Q 3.178433349609375 0.41100000000000014 3.127433349609375 0.41100000000000014 Q 3.058433349609375 0.41100000000000014 3.005183349609375 0.4800000000000001 Q 2.951933349609375 0.5490000000000002 2.941433349609375 0.6990000000000001 L 2.945933349609375 0.7050000000000001 Q 2.942933349609375 0.7275000000000001 2.941433349609375 0.7545000000000002 Q 2.939933349609375 0.7815000000000001 2.939933349609375 0.8085000000000002 Q 2.939933349609375 0.9105000000000001 2.972933349609375 0.9840000000000002 Q 3.005933349609375 1.0575 3.059183349609375 1.0957500000000002 Q 3.112433349609375 1.1340000000000001 3.169433349609375 1.1340000000000001 Q 3.214433349609375 1.1340000000000001 3.254933349609375 1.1197500000000002 Q 3.2954333496093753 1.1055000000000001 3.329933349609375 1.0725000000000002 Q 3.3644333496093752 1.0395 3.389933349609375 0.9840000000000002 L 3.419933349609375 0.9960000000000002 Q 3.403433349609375 1.0455 3.365933349609375 1.092 Q 3.3284333496093748 1.1385 3.2714333496093753 1.16775 Q 3.214433349609375 1.197 3.139433349609375 1.197 Q 3.031433349609375 1.197 2.954183349609375 1.1475000000000002 Q 2.876933349609375 1.098 2.835683349609375 1.01025 Q 2.794433349609375 0.9225000000000001 2.794433349609375 0.8085000000000002 Q 2.794433349609375 0.6765000000000001 2.836433349609375 0.5812500000000002 Q 2.878433349609375 0.4860000000000001 2.954933349609375 0.43425000000000014 Q 3.031433349609375 0.3825000000000002 3.133433349609375 0.3825000000000002 M 3.796405517578125 0.3825000000000002 Q 3.856405517578125 0.3825000000000002 3.898405517578125 0.40200000000000014 Q 3.940405517578125 0.4215000000000001 3.9599055175781253 0.43800000000000017 Q 4.009405517578125 0.47850000000000015 4.019905517578125 0.3840000000000001 L 4.054405517578125 0.3840000000000001 Q 4.051405517578125 0.42600000000000016 4.049905517578125 0.4837500000000001 Q 4.048405517578125 0.5415000000000001 4.048405517578125 0.6390000000000001 L 4.013905517578125 0.6390000000000001 Q 4.004905517578125 0.5835000000000001 3.9831555175781252 0.5310000000000001 Q 3.961405517578125 0.47850000000000015 3.919405517578125 0.4447500000000001 Q 3.877405517578125 0.41100000000000014 3.809905517578125 0.41100000000000014 Q 3.757405517578125 0.41100000000000014 3.722155517578125 0.44025000000000014 Q 3.686905517578125 0.46950000000000014 3.686905517578125 0.5265000000000002 Q 3.686905517578125 0.5715000000000001 3.713905517578125 0.6037500000000001 Q 3.740905517578125 0.6360000000000001 3.784405517578125 0.6637500000000002 Q 3.827905517578125 0.6915000000000002 3.878905517578125 0.7245000000000001 Q 3.9359055175781252 0.7605000000000002 3.982405517578125 0.7980000000000002 Q 4.028905517578125 0.8355000000000001 4.056655517578125 0.8805000000000002 Q 4.084405517578125 0.9255000000000002 4.084405517578125 0.9870000000000001 Q 4.084405517578125 1.056 4.048405517578125 1.1025000000000003 Q 4.0124055175781255 1.1490000000000002 3.954655517578125 1.1730000000000003 Q 3.896905517578125 1.197 3.827905517578125 1.197 Q 3.794905517578125 1.197 3.765655517578125 1.19175 Q 3.736405517578125 1.1865 3.709405517578125 1.1760000000000002 Q 3.694405517578125 1.1685 3.678655517578125 1.1580000000000001 Q 3.662905517578125 1.1475000000000002 3.647905517578125 1.1355000000000002 Q 3.632905517578125 1.1235000000000002 3.620905517578125 1.1362500000000002 Q 3.608905517578125 1.1490000000000002 3.602905517578125 1.1865 L 3.568405517578125 1.1865 Q 3.571405517578125 1.1385 3.572905517578125 1.0695000000000001 Q 3.574405517578125 1.0005000000000002 3.574405517578125 0.8865000000000002 L 3.608905517578125 0.8865000000000002 Q 3.619405517578125 0.9705000000000001 3.638905517578125 1.0335 Q 3.658405517578125 1.0965000000000003 3.700405517578125 1.1317500000000003 Q 3.742405517578125 1.1670000000000003 3.817405517578125 1.1670000000000003 Q 3.847405517578125 1.1670000000000003 3.878155517578125 1.1535000000000002 Q 3.908905517578125 1.1400000000000001 3.929905517578125 1.1085000000000003 Q 3.950905517578125 1.0770000000000002 3.950905517578125 1.0245000000000002 Q 3.950905517578125 0.9585000000000001 3.902905517578125 0.9165000000000001 Q 3.854905517578125 0.8745000000000002 3.781405517578125 0.8280000000000001 Q 3.727405517578125 0.7935000000000001 3.680155517578125 0.7590000000000001 Q 3.632905517578125 0.7245000000000001 3.603655517578125 0.6810000000000002 Q 3.574405517578125 0.6375000000000002 3.574405517578125 0.5760000000000002 Q 3.574405517578125 0.5085000000000002 3.605155517578125 0.4657500000000001 Q 3.635905517578125 0.42300000000000015 3.686905517578125 0.40275000000000016 Q 3.737905517578125 0.3825000000000002 3.796405517578125 0.3825000000000002 M 4.481937744140625 0.4035000000000002 L 4.481937744140625 0.43500000000000016 Q 4.444437744140625 0.43500000000000016 4.415937744140625 0.44025000000000014 Q 4.387437744140625 0.4455000000000001 4.378437744140625 0.4710000000000002 Q 4.369437744140625 0.49650000000000016 4.391937744140625 0.5610000000000002 L 4.547937744140625 1.0080000000000002 L 4.537437744140625 1.0065000000000002 L 4.757937744140625 0.3975000000000002 L 4.787937744140625 0.4095000000000001 L 4.513437744140625 1.1835000000000002 Q 4.507437744140625 1.1835000000000002 4.501437744140625 1.1835000000000002 Q 4.4954377441406255 1.1835000000000002 4.487937744140625 1.1835000000000002 L 4.241937744140625 0.5190000000000001 Q 4.217937744140625 0.4590000000000002 4.194687744140625 0.4470000000000002 Q 4.171437744140625 0.43500000000000016 4.154937744140625 0.43500000000000016 L 4.154937744140625 0.4035000000000002 Q 4.184937744140625 0.40800000000000014 4.217187744140625 0.4102500000000001 Q 4.249437744140625 0.4125000000000001 4.286937744140625 0.4125000000000001 Q 4.333437744140625 0.4125000000000001 4.385187744140625 0.4095000000000001 Q 4.436937744140625 0.4065000000000002 4.481937744140625 0.4035000000000002 M 5.305437744140625 0.4035000000000002 L 5.305437744140625 0.4335000000000001 Q 5.276937744140625 0.4365000000000001 5.252187744140625 0.45825000000000016 Q 5.227437744140625 0.4800000000000001 5.207937744140625 0.5385000000000001 L 4.990437744140625 1.1835000000000002 Q 4.984437744140625 1.1835000000000002 4.978437744140625 1.1835000000000002 Q 4.972437744140625 1.1835000000000002 4.9649377441406255 1.1835000000000002 L 4.723437744140625 0.5700000000000002 L 4.757937744140625 0.3975000000000002 Q 4.766937744140625 0.3975000000000002 4.775187744140625 0.3975000000000002 Q 4.783437744140625 0.3975000000000002 4.792437744140625 0.3975000000000002 L 5.026437744140625 1.0170000000000001 L 5.014437744140625 1.0260000000000002 L 5.162937744140625 0.5745000000000001 Q 5.179437744140625 0.5235000000000002 5.175687744140625 0.4942500000000002 Q 5.171937744140625 0.4650000000000002 5.145687744140625 0.4507500000000001 Q 5.119437744140625 0.4365000000000001 5.065437744140625 0.4335000000000001 L 5.065437744140625 0.4035000000000002 Q 5.092437744140625 0.40500000000000014 5.111937744140625 0.40575000000000017 Q 5.131437744140625 0.4065000000000002 5.150187744140625 0.4072500000000001 Q 5.168937744140625 0.40800000000000014 5.191437744140625 0.40800000000000014 Q 5.225937744140625 0.40800000000000014 5.253687744140625 0.4065000000000002 Q 5.281437744140625 0.40500000000000014 5.305437744140625 0.4035000000000002 M 5.7045087890625 0.3825000000000002 Q 5.8365087890625 0.3825000000000002 5.9107587890625 0.4627500000000001 Q 5.9850087890625 0.5430000000000001 5.9850087890625 0.7125000000000001 L 5.4555087890625 0.7125000000000001 L 5.4540087890625 0.6840000000000002 L 5.8410087890625 0.6840000000000002 Q 5.8440087890625 0.6105000000000002 5.8290087890625 0.5482500000000001 Q 5.8140087890625 0.4860000000000001 5.7817587890625 0.4485000000000001 Q 5.7495087890625 0.41100000000000014 5.6985087890625 0.41100000000000014 Q 5.6295087890625 0.41100000000000014 5.5762587890625 0.4800000000000001 Q 5.5230087890625 0.5490000000000002 5.5125087890625 0.6990000000000001 L 5.5170087890625 0.7050000000000001 Q 5.5140087890625 0.7275000000000001 5.5125087890625 0.7545000000000002 Q 5.5110087890625 0.7815000000000001 5.5110087890625 0.8085000000000002 Q 5.5110087890625 0.9105000000000001 5.5440087890625 0.9840000000000002 Q 5.5770087890625 1.0575 5.6302587890625 1.0957500000000002 Q 5.6835087890625005 1.1340000000000001 5.7405087890625 1.1340000000000001 Q 5.7855087890625 1.1340000000000001 5.8260087890625 1.1197500000000002 Q 5.8665087890625 1.1055000000000001 5.9010087890625 1.0725000000000002 Q 5.9355087890625 1.0395 5.9610087890625 0.9840000000000002 L 5.9910087890625 0.9960000000000002 Q 5.9745087890625 1.0455 5.9370087890625 1.092 Q 5.8995087890625 1.1385 5.8425087890625 1.16775 Q 5.7855087890625 1.197 5.7105087890625 1.197 Q 5.6025087890625 1.197 5.5252587890625 1.1475000000000002 Q 5.4480087890625 1.098 5.4067587890625 1.01025 Q 5.3655087890625 0.9225000000000001 5.3655087890625 0.8085000000000002 Q 5.3655087890625 0.6765000000000001 5.4075087890625 0.5812500000000002 Q 5.4495087890625 0.4860000000000001 5.5260087890625 0.43425000000000014 Q 5.6025087890625 0.3825000000000002 5.7045087890625 0.3825000000000002 M 6.31198095703125 1.1865 Q 6.25048095703125 1.1865 6.20548095703125 1.1632500000000001 Q 6.16048095703125 1.1400000000000001 6.13723095703125 1.098 Q 6.11398095703125 1.056 6.11398095703125 1.0005000000000002 Q 6.11398095703125 0.9345000000000001 6.14473095703125 0.8925000000000001 Q 6.17548095703125 0.8505000000000001 6.22348095703125 0.8250000000000002 Q 6.27148095703125 0.7995000000000001 6.3247309570312495 0.7822500000000001 Q 6.37798095703125 0.7650000000000001 6.42598095703125 0.7492500000000002 Q 6.47398095703125 0.7335000000000002 6.50473095703125 0.7125000000000001 Q 6.53548095703125 0.6915000000000002 6.53548095703125 0.6570000000000001 L 6.53548095703125 0.5640000000000002 Q 6.53548095703125 0.5010000000000001 6.51673095703125 0.4680000000000002 Q 6.49798095703125 0.43500000000000016 6.46648095703125 0.4237500000000002 Q 6.43498095703125 0.4125000000000001 6.3959809570312505 0.4125000000000001 Q 6.35848095703125 0.4125000000000001 6.31573095703125 0.42300000000000015 Q 6.27298095703125 0.4335000000000001 6.24748095703125 0.46650000000000014 Q 6.27598095703125 0.47250000000000014 6.29698095703125 0.49650000000000016 Q 6.31798095703125 0.5205000000000002 6.31798095703125 0.5580000000000002 Q 6.31798095703125 0.5955000000000001 6.29398095703125 0.6172500000000002 Q 6.26998095703125 0.6390000000000001 6.23248095703125 0.6390000000000001 Q 6.18898095703125 0.6390000000000001 6.16873095703125 0.6112500000000002 Q 6.14848095703125 0.5835000000000001 6.14848095703125 0.5490000000000002 Q 6.14848095703125 0.5100000000000001 6.16798095703125 0.4860000000000001 Q 6.18748095703125 0.4620000000000002 6.21748095703125 0.44100000000000017 Q 6.25198095703125 0.41700000000000015 6.30673095703125 0.39975000000000016 Q 6.36148095703125 0.3825000000000002 6.43048095703125 0.3825000000000002 Q 6.49198095703125 0.3825000000000002 6.53548095703125 0.39675000000000016 Q 6.57898095703125 0.41100000000000014 6.60748095703125 0.43800000000000017 Q 6.64648095703125 0.4740000000000001 6.65848095703125 0.5257500000000002 Q 6.67048095703125 0.5775000000000001 6.67048095703125 0.6495000000000002 L 6.67048095703125 1.0665000000000002 Q 6.67048095703125 1.104 6.68173095703125 1.1205 Q 6.69298095703125 1.1370000000000002 6.71698095703125 1.1370000000000002 Q 6.73348095703125 1.1370000000000002 6.74848095703125 1.1295000000000002 Q 6.76348095703125 1.122 6.78448095703125 1.1055000000000001 L 6.80098095703125 1.1310000000000002 Q 6.76948095703125 1.1550000000000002 6.74098095703125 1.1707500000000002 Q 6.71248095703125 1.1865 6.66448095703125 1.1865 Q 6.62098095703125 1.1865 6.59248095703125 1.1715000000000002 Q 6.56398095703125 1.1565 6.54973095703125 1.12725 Q 6.53548095703125 1.098 6.53548095703125 1.0530000000000002 Q 6.49498095703125 1.1205 6.43873095703125 1.1535000000000002 Q 6.38248095703125 1.1865 6.31198095703125 1.1865 M 6.36598095703125 1.1265 Q 6.41548095703125 1.1265 6.45823095703125 1.098 Q 6.50098095703125 1.0695000000000001 6.53548095703125 1.0125000000000002 L 6.53548095703125 0.7185000000000001 Q 6.51748095703125 0.7440000000000002 6.48298095703125 0.7612500000000002 Q 6.44848095703125 0.7785000000000002 6.40798095703125 0.7957500000000002 Q 6.36748095703125 0.8130000000000002 6.33073095703125 0.8362500000000002 Q 6.29398095703125 0.8595000000000002 6.26998095703125 0.8970000000000001 Q 6.24598095703125 0.9345000000000001 6.24598095703125 0.9945000000000002 Q 6.24598095703125 1.0545000000000002 6.27823095703125 1.0905000000000002 Q 6.31048095703125 1.1265 6.36598095703125 1.1265 M 7.312459716796875 0.3825000000000002 Q 7.3529597167968745 0.3825000000000002 7.383709716796875 0.39900000000000013 Q 7.414459716796875 0.4155000000000001 7.431709716796875 0.4417500000000001 Q 7.448959716796875 0.4680000000000002 7.448959716796875 0.5010000000000001 Q 7.448959716796875 0.5385000000000001 7.425709716796875 0.5670000000000002 Q 7.402459716796875 0.5955000000000001 7.363459716796875 0.5955000000000001 Q 7.331959716796875 0.5955000000000001 7.307959716796875 0.5752500000000002 Q 7.283959716796875 0.5550000000000002 7.283959716796875 0.5175000000000002 Q 7.283959716796875 0.4890000000000001 7.299709716796875 0.4687500000000001 Q 7.315459716796875 0.4485000000000001 7.334959716796875 0.4365000000000001 Q 7.324459716796875 0.4215000000000001 7.303459716796875 0.4215000000000001 Q 7.256959716796875 0.4215000000000001 7.217959716796875 0.44925000000000015 Q 7.178959716796875 0.4770000000000001 7.151959716796875 0.5205000000000002 Q 7.124959716796875 0.5640000000000002 7.109959716796875 0.6127500000000001 Q 7.094959716796875 0.6615000000000002 7.094959716796875 0.7035000000000001 L 7.094959716796875 1.0215 Q 7.094959716796875 1.0950000000000002 7.137709716796875 1.1197500000000002 Q 7.180459716796875 1.1445 7.253959716796875 1.1445 L 7.253959716796875 1.1760000000000002 Q 7.219459716796875 1.1745 7.156459716796875 1.1722500000000002 Q 7.093459716796875 1.1700000000000002 7.022959716796875 1.1700000000000002 Q 6.971959716796875 1.1700000000000002 6.921709716796875 1.1722500000000002 Q 6.871459716796875 1.1745 6.845959716796875 1.1760000000000002 L 6.845959716796875 1.1445 Q 6.907459716796875 1.1445 6.933709716796875 1.122 Q 6.959959716796875 1.0995000000000001 6.959959716796875 1.0365000000000002 L 6.959959716796875 0.5670000000000002 Q 6.959959716796875 0.49950000000000017 6.935959716796875 0.46725000000000017 Q 6.911959716796875 0.43500000000000016 6.845959716796875 0.43500000000000016 L 6.845959716796875 0.4035000000000002 Q 6.893959716796875 0.40800000000000014 6.938959716796875 0.40800000000000014 Q 6.982459716796875 0.40800000000000014 7.022209716796875 0.40275000000000016 Q 7.061959716796875 0.3975000000000002 7.094959716796875 0.3870000000000001 L 7.094959716796875 0.5745000000000001 Q 7.111459716796875 0.5310000000000001 7.142209716796875 0.4867500000000001 Q 7.172959716796875 0.4425000000000001 7.216459716796875 0.4125000000000001 Q 7.259959716796875 0.3825000000000002 7.312459716796875 0.3825000000000002" fill="#1c3423" fill-rule="nonzero"></path></g><g><path d=" M 0.267 1.5591749999999998 L 0.3165 1.5591749999999998 L 0.3915 1.7481749999999998 L 0.46725 1.5591749999999998 L 0.5175 1.5591749999999998 L 0.4245 1.786425 L 0.5265 2.0271749999999997 L 0.7192500000000001 1.5554249999999998 L 0.77625 1.5554249999999998 L 0.5505 2.087925 L 0.504 2.087925 L 0.39225 1.8246749999999998 L 0.27975 2.087925 L 0.234 2.087925 L 0.009000000000000001 1.5554249999999998 L 0.06525 1.5554249999999998 L 0.25875 2.0271749999999997 L 0.36 1.786425 L 0.267 1.5591749999999998 M 0.9592529296875001 2.0954249999999996 Q 0.9172529296875 2.0954249999999996 0.8812529296875001 2.0793 Q 0.8452529296875001 2.0631749999999998 0.8190029296875001 2.03505 Q 0.7927529296875001 2.006925 0.7781279296875001 1.9701749999999998 Q 0.7635029296875001 1.9334249999999997 0.7635029296875001 1.891425 Q 0.7635029296875001 1.8366749999999998 0.7886279296875001 1.7909249999999999 Q 0.8137529296875001 1.7451749999999997 0.8580029296875001 1.7177999999999998 Q 0.9022529296875001 1.6904249999999998 0.9585029296875001 1.6904249999999998 Q 1.0162529296875 1.6904249999999998 1.0593779296875 1.7181749999999998 Q 1.1025029296875002 1.7459249999999997 1.1272529296875002 1.7912999999999997 Q 1.1520029296875 1.8366749999999998 1.1520029296875 1.8906749999999999 Q 1.1520029296875 1.8966749999999999 1.1520029296875 1.9022999999999999 Q 1.1520029296875 1.9079249999999999 1.1512529296875 1.9109249999999998 L 0.8167529296875001 1.9109249999999998 Q 0.8205029296875002 1.9529249999999998 0.8403779296875001 1.9855499999999997 Q 0.8602529296875001 2.018175 0.8921279296875001 2.0372999999999997 Q 0.9240029296875001 2.056425 0.9615029296875002 2.056425 Q 0.9997529296875001 2.056425 1.0338779296875003 2.0369249999999997 Q 1.0680029296875002 2.017425 1.0815029296875 1.9859249999999997 L 1.1257529296875002 1.9979249999999997 Q 1.1137529296875002 2.0256749999999997 1.0890029296875001 2.0481749999999996 Q 1.0642529296875 2.0706749999999996 1.0308779296875001 2.0830499999999996 Q 0.9975029296875001 2.0954249999999996 0.9592529296875001 2.0954249999999996 M 0.8152529296875001 1.8741749999999997 L 1.1040029296875002 1.8741749999999997 Q 1.1010029296875001 1.8314249999999999 1.0811279296875 1.7991749999999997 Q 1.0612529296875002 1.7669249999999999 1.0293779296875 1.7485499999999998 Q 0.9975029296875001 1.7301749999999998 0.9592529296875001 1.7301749999999998 Q 0.9210029296875001 1.7301749999999998 0.8895029296875001 1.7485499999999998 Q 0.8580029296875001 1.7669249999999999 0.8381279296875002 1.7995499999999998 Q 0.8182529296875001 1.8321749999999999 0.8152529296875001 1.8741749999999997 M 1.1992342529296875 1.9754249999999998 Q 1.1992342529296875 1.938675 1.2202342529296875 1.9120499999999998 Q 1.2412342529296876 1.8854249999999997 1.2783592529296874 1.8707999999999998 Q 1.3154842529296875 1.856175 1.3642342529296876 1.856175 Q 1.3927342529296876 1.856175 1.4234842529296876 1.8606749999999999 Q 1.4542342529296874 1.8651749999999998 1.4782342529296875 1.8741749999999997 L 1.4782342529296875 1.8411749999999998 Q 1.4782342529296875 1.7916749999999997 1.4489842529296875 1.762425 Q 1.4197342529296875 1.7331749999999997 1.3679842529296875 1.7331749999999997 Q 1.3364842529296874 1.7331749999999997 1.3061092529296876 1.7447999999999997 Q 1.2757342529296876 1.7564249999999997 1.2427342529296874 1.7789249999999999 L 1.2232342529296876 1.7429249999999998 Q 1.2614842529296875 1.7166749999999997 1.2982342529296875 1.70355 Q 1.3349842529296876 1.6904249999999998 1.3732342529296875 1.6904249999999998 Q 1.4452342529296875 1.6904249999999998 1.4872342529296876 1.7316749999999999 Q 1.5292342529296876 1.7729249999999999 1.5292342529296876 1.8456749999999997 L 1.5292342529296876 2.0264249999999997 Q 1.5292342529296876 2.0369249999999997 1.5337342529296876 2.0418 Q 1.5382342529296875 2.046675 1.5479842529296874 2.0474249999999996 L 1.5479842529296874 2.087925 Q 1.5397342529296876 2.088675 1.5337342529296876 2.089425 Q 1.5277342529296876 2.090175 1.5247342529296875 2.089425 Q 1.5059842529296876 2.088675 1.4962342529296875 2.077425 Q 1.4864842529296876 2.066175 1.4857342529296875 2.053425 L 1.4849842529296875 2.0249249999999996 Q 1.4587342529296876 2.0586749999999996 1.4167342529296876 2.07705 Q 1.3747342529296875 2.0954249999999996 1.3312342529296874 2.0954249999999996 Q 1.2937342529296876 2.0954249999999996 1.2633592529296875 2.0793 Q 1.2329842529296875 2.0631749999999998 1.2161092529296875 2.0357999999999996 Q 1.1992342529296875 2.008425 1.1992342529296875 1.9754249999999998 M 1.4609842529296875 2.005425 Q 1.4692342529296876 1.9949249999999998 1.4737342529296875 1.985175 Q 1.4782342529296875 1.9754249999999998 1.4782342529296875 1.9679249999999997 L 1.4782342529296875 1.9109249999999998 Q 1.4527342529296874 1.9011749999999998 1.4253592529296875 1.8959249999999999 Q 1.3979842529296875 1.8906749999999999 1.3702342529296876 1.8906749999999999 Q 1.3154842529296875 1.8906749999999999 1.2817342529296876 1.9124249999999998 Q 1.2479842529296874 1.9341749999999998 1.2479842529296874 1.9716749999999998 Q 1.2479842529296874 1.9934249999999998 1.2592342529296876 2.0125499999999996 Q 1.2704842529296876 2.031675 1.2922342529296875 2.04405 Q 1.3139842529296875 2.056425 1.3432342529296875 2.056425 Q 1.3799842529296875 2.056425 1.4118592529296876 2.042175 Q 1.4437342529296875 2.0279249999999998 1.4609842529296875 2.005425 M 1.834471435546875 1.7421749999999998 Q 1.783471435546875 1.7436749999999999 1.744846435546875 1.7706749999999998 Q 1.706221435546875 1.797675 1.690471435546875 1.844925 L 1.690471435546875 2.087925 L 1.639471435546875 2.087925 L 1.639471435546875 1.6971749999999999 L 1.687471435546875 1.6971749999999999 L 1.687471435546875 1.7909249999999999 Q 1.707721435546875 1.7496749999999999 1.741096435546875 1.7241749999999998 Q 1.774471435546875 1.6986749999999997 1.811971435546875 1.6956749999999998 Q 1.819471435546875 1.6949249999999998 1.825096435546875 1.6949249999999998 Q 1.830721435546875 1.6949249999999998 1.834471435546875 1.6956749999999998 L 1.834471435546875 1.7421749999999998 M 2.264227294921875 2.069175 Q 2.258227294921875 2.0714249999999996 2.245477294921875 2.077425 Q 2.232727294921875 2.0834249999999996 2.214727294921875 2.087925 Q 2.196727294921875 2.092425 2.175727294921875 2.092425 Q 2.153977294921875 2.092425 2.134852294921875 2.0841749999999997 Q 2.115727294921875 2.075925 2.104477294921875 2.0590499999999996 Q 2.093227294921875 2.042175 2.093227294921875 2.017425 L 2.093227294921875 1.7376749999999999 L 2.039227294921875 1.7376749999999999 L 2.039227294921875 1.6971749999999999 L 2.093227294921875 1.6971749999999999 L 2.093227294921875 1.5651749999999998 L 2.144227294921875 1.5651749999999998 L 2.144227294921875 1.6971749999999999 L 2.234227294921875 1.6971749999999999 L 2.234227294921875 1.7376749999999999 L 2.144227294921875 1.7376749999999999 L 2.144227294921875 2.0031749999999997 Q 2.145727294921875 2.0241749999999996 2.159602294921875 2.034675 Q 2.173477294921875 2.045175 2.191477294921875 2.045175 Q 2.212477294921875 2.045175 2.229727294921875 2.0380499999999997 Q 2.246977294921875 2.030925 2.250727294921875 2.0279249999999998 L 2.264227294921875 2.069175 M 2.6564937744140624 2.087925 L 2.6054937744140627 2.087925 L 2.6054937744140627 1.8696749999999998 Q 2.6054937744140627 1.8036749999999997 2.5822437744140627 1.7702999999999998 Q 2.5589937744140627 1.7369249999999998 2.5154937744140624 1.7369249999999998 Q 2.4869937744140627 1.7369249999999998 2.4588687744140625 1.75155 Q 2.4307437744140623 1.7661749999999998 2.4093687744140624 1.7912999999999997 Q 2.3879937744140625 1.8164249999999997 2.3789937744140626 1.8486749999999998 L 2.3789937744140626 2.087925 L 2.3279937744140624 2.087925 L 2.3279937744140624 1.540425 L 2.3789937744140626 1.540425 L 2.3789937744140626 1.785675 Q 2.4022437744140626 1.7421749999999998 2.4438687744140624 1.7163 Q 2.4854937744140626 1.6904249999999998 2.5327437744140626 1.6904249999999998 Q 2.5664937744140626 1.6904249999999998 2.5901187744140626 1.7024249999999999 Q 2.6137437744140626 1.7144249999999999 2.6283687744140627 1.7372999999999998 Q 2.6429937744140624 1.7601749999999998 2.6497437744140626 1.7905499999999999 Q 2.6564937744140624 1.820925 2.6564937744140624 1.8591749999999998 L 2.6564937744140624 2.087925 M 2.9339996337890626 2.0954249999999996 Q 2.8919996337890623 2.0954249999999996 2.8559996337890623 2.0793 Q 2.8199996337890627 2.0631749999999998 2.7937496337890626 2.03505 Q 2.7674996337890625 2.006925 2.7528746337890624 1.9701749999999998 Q 2.7382496337890627 1.9334249999999997 2.7382496337890627 1.891425 Q 2.7382496337890627 1.8366749999999998 2.7633746337890623 1.7909249999999999 Q 2.7884996337890624 1.7451749999999997 2.8327496337890623 1.7177999999999998 Q 2.8769996337890626 1.6904249999999998 2.9332496337890626 1.6904249999999998 Q 2.9909996337890625 1.6904249999999998 3.0341246337890624 1.7181749999999998 Q 3.0772496337890627 1.7459249999999997 3.1019996337890623 1.7912999999999997 Q 3.1267496337890623 1.8366749999999998 3.1267496337890623 1.8906749999999999 Q 3.1267496337890623 1.8966749999999999 3.1267496337890623 1.9022999999999999 Q 3.1267496337890623 1.9079249999999999 3.1259996337890623 1.9109249999999998 L 2.7914996337890625 1.9109249999999998 Q 2.7952496337890627 1.9529249999999998 2.8151246337890625 1.9855499999999997 Q 2.8349996337890624 2.018175 2.8668746337890627 2.0372999999999997 Q 2.8987496337890626 2.056425 2.9362496337890627 2.056425 Q 2.9744996337890623 2.056425 3.0086246337890623 2.0369249999999997 Q 3.0427496337890627 2.017425 3.0562496337890623 1.9859249999999997 L 3.1004996337890627 1.9979249999999997 Q 3.0884996337890627 2.0256749999999997 3.0637496337890626 2.0481749999999996 Q 3.0389996337890626 2.0706749999999996 3.0056246337890626 2.0830499999999996 Q 2.9722496337890627 2.0954249999999996 2.9339996337890626 2.0954249999999996 M 2.7899996337890625 1.8741749999999997 L 3.0787496337890623 1.8741749999999997 Q 3.0757496337890626 1.8314249999999999 3.0558746337890623 1.7991749999999997 Q 3.0359996337890625 1.7669249999999999 3.0041246337890626 1.7485499999999998 Q 2.9722496337890627 1.7301749999999998 2.9339996337890626 1.7301749999999998 Q 2.8957496337890625 1.7301749999999998 2.8642496337890626 1.7485499999999998 Q 2.8327496337890623 1.7669249999999999 2.8128746337890624 1.7995499999999998 Q 2.7929996337890626 1.8321749999999999 2.7899996337890625 1.8741749999999997 M 3.566234619140625 2.0954249999999996 Q 3.523484619140625 2.0954249999999996 3.487859619140625 2.0793 Q 3.452234619140625 2.0631749999999998 3.425609619140625 2.034675 Q 3.398984619140625 2.006175 3.384359619140625 1.9694249999999998 Q 3.369734619140625 1.9326749999999997 3.369734619140625 1.891425 Q 3.369734619140625 1.8359249999999998 3.394484619140625 1.7901749999999998 Q 3.419234619140625 1.7444249999999997 3.463484619140625 1.7174249999999998 Q 3.507734619140625 1.6904249999999998 3.565484619140625 1.6904249999999998 Q 3.620234619140625 1.6904249999999998 3.6622346191406248 1.71555 Q 3.704234619140625 1.7406749999999998 3.724484619140625 1.7834249999999998 L 3.6749846191406252 1.7991749999999997 Q 3.658484619140625 1.7691749999999997 3.628859619140625 1.7522999999999997 Q 3.599234619140625 1.7354249999999998 3.563234619140625 1.7354249999999998 Q 3.524234619140625 1.7354249999999998 3.491984619140625 1.7556749999999999 Q 3.459734619140625 1.7759249999999998 3.440609619140625 1.8111749999999998 Q 3.421484619140625 1.8464249999999998 3.421484619140625 1.891425 Q 3.421484619140625 1.9356749999999998 3.440984619140625 1.9716749999999998 Q 3.460484619140625 2.007675 3.492734619140625 2.02905 Q 3.524984619140625 2.0504249999999997 3.563984619140625 2.0504249999999997 Q 3.589484619140625 2.0504249999999997 3.613109619140625 2.041425 Q 3.636734619140625 2.032425 3.654359619140625 2.01705 Q 3.671984619140625 2.0016749999999996 3.677984619140625 1.9836749999999999 L 3.728234619140625 1.9986749999999998 Q 3.717734619140625 2.0264249999999997 3.693359619140625 2.0485499999999996 Q 3.668984619140625 2.0706749999999996 3.636359619140625 2.0830499999999996 Q 3.603734619140625 2.0954249999999996 3.566234619140625 2.0954249999999996 M 3.9712393798828125 2.0954249999999996 Q 3.9292393798828127 2.0954249999999996 3.8936143798828127 2.0793 Q 3.8579893798828127 2.0631749999999998 3.8321143798828126 2.03505 Q 3.8062393798828125 2.006925 3.7919893798828124 1.9705499999999998 Q 3.7777393798828127 1.9341749999999998 3.7777393798828127 1.8936749999999998 Q 3.7777393798828127 1.8516749999999997 3.7919893798828124 1.8152999999999997 Q 3.8062393798828125 1.7789249999999999 3.8324893798828126 1.7508 Q 3.8587393798828127 1.7226749999999997 3.8943643798828127 1.7065499999999998 Q 3.9299893798828123 1.6904249999999998 3.9719893798828125 1.6904249999999998 Q 4.013989379882813 1.6904249999999998 4.049239379882812 1.7065499999999998 Q 4.084489379882813 1.7226749999999997 4.110739379882813 1.7508 Q 4.136989379882812 1.7789249999999999 4.151239379882813 1.8152999999999997 Q 4.165489379882812 1.8516749999999997 4.165489379882812 1.8936749999999998 Q 4.165489379882812 1.9341749999999998 4.151239379882813 1.9705499999999998 Q 4.136989379882812 2.006925 4.111114379882813 2.03505 Q 4.085239379882813 2.0631749999999998 4.049614379882812 2.0793 Q 4.013989379882813 2.0954249999999996 3.9712393798828125 2.0954249999999996 M 3.8294893798828125 1.8944249999999998 Q 3.8294893798828125 1.937925 3.8486143798828123 1.97355 Q 3.8677393798828126 2.009175 3.8999893798828125 2.0298 Q 3.9322393798828124 2.0504249999999997 3.9712393798828125 2.0504249999999997 Q 4.010239379882813 2.0504249999999997 4.042489379882812 2.029425 Q 4.074739379882812 2.008425 4.094239379882812 1.9720499999999999 Q 4.113739379882812 1.9356749999999998 4.113739379882812 1.8929249999999997 Q 4.113739379882812 1.8494249999999999 4.094239379882812 1.8134249999999998 Q 4.074739379882812 1.7774249999999998 4.042489379882812 1.7564249999999997 Q 4.010239379882813 1.7354249999999998 3.9712393798828125 1.7354249999999998 Q 3.9322393798828124 1.7354249999999998 3.9003643798828125 1.7571749999999997 Q 3.8684893798828126 1.7789249999999999 3.8489893798828123 1.8145499999999999 Q 3.8294893798828125 1.8501749999999997 3.8294893798828125 1.8944249999999998 M 4.224717407226563 1.8936749999999998 Q 4.224717407226563 1.838175 4.247592407226563 1.7920499999999997 Q 4.270467407226563 1.7459249999999997 4.3109674072265625 1.7181749999999998 Q 4.351467407226562 1.6904249999999998 4.403217407226562 1.6904249999999998 Q 4.4519674072265625 1.6904249999999998 4.490592407226562 1.7163 Q 4.529217407226563 1.7421749999999998 4.550967407226563 1.7789249999999999 L 4.550967407226563 1.540425 L 4.601967407226563 1.540425 L 4.601967407226563 2.0264249999999997 Q 4.601967407226563 2.0369249999999997 4.606467407226562 2.0418 Q 4.610967407226562 2.046675 4.619967407226563 2.0474249999999996 L 4.619967407226563 2.087925 Q 4.604967407226562 2.090175 4.596717407226563 2.089425 Q 4.580967407226563 2.088675 4.5689674072265625 2.076675 Q 4.556967407226563 2.064675 4.556967407226563 2.0504249999999997 L 4.556967407226563 2.0121749999999996 Q 4.533717407226563 2.0504249999999997 4.493967407226562 2.0729249999999997 Q 4.454217407226563 2.0954249999999996 4.411467407226563 2.0954249999999996 Q 4.370967407226562 2.0954249999999996 4.336842407226563 2.078925 Q 4.302717407226562 2.0624249999999997 4.277592407226562 2.033925 Q 4.252467407226563 2.005425 4.238592407226562 1.9690499999999997 Q 4.224717407226563 1.9326749999999997 4.224717407226563 1.8936749999999998 M 4.550967407226563 1.9536749999999998 L 4.550967407226563 1.832925 Q 4.541217407226562 1.8059249999999998 4.519467407226562 1.7837999999999998 Q 4.497717407226562 1.7616749999999999 4.470342407226562 1.7485499999999998 Q 4.442967407226562 1.7354249999999998 4.415967407226563 1.7354249999999998 Q 4.384467407226563 1.7354249999999998 4.3589674072265625 1.7485499999999998 Q 4.333467407226562 1.7616749999999999 4.315092407226563 1.7841749999999998 Q 4.296717407226563 1.8066749999999998 4.286967407226562 1.8351749999999998 Q 4.277217407226562 1.8636749999999997 4.277217407226562 1.8936749999999998 Q 4.277217407226562 1.9251749999999999 4.2880924072265625 1.9536749999999998 Q 4.298967407226563 1.9821749999999998 4.319217407226563 2.0042999999999997 Q 4.339467407226563 2.0264249999999997 4.365717407226563 2.0384249999999997 Q 4.391967407226563 2.0504249999999997 4.422717407226562 2.0504249999999997 Q 4.442217407226562 2.0504249999999997 4.463217407226563 2.042925 Q 4.484217407226563 2.0354249999999996 4.503342407226563 2.0223 Q 4.5224674072265625 2.009175 4.535217407226563 1.9911749999999997 Q 4.547967407226563 1.973175 4.550967407226563 1.9536749999999998 M 4.886224365234375 2.0954249999999996 Q 4.844224365234375 2.0954249999999996 4.808224365234375 2.0793 Q 4.772224365234375 2.0631749999999998 4.745974365234375 2.03505 Q 4.719724365234375 2.006925 4.705099365234375 1.9701749999999998 Q 4.690474365234375 1.9334249999999997 4.690474365234375 1.891425 Q 4.690474365234375 1.8366749999999998 4.715599365234375 1.7909249999999999 Q 4.740724365234375 1.7451749999999997 4.784974365234375 1.7177999999999998 Q 4.829224365234375 1.6904249999999998 4.885474365234375 1.6904249999999998 Q 4.943224365234375 1.6904249999999998 4.986349365234375 1.7181749999999998 Q 5.029474365234375 1.7459249999999997 5.054224365234375 1.7912999999999997 Q 5.078974365234375 1.8366749999999998 5.078974365234375 1.8906749999999999 Q 5.078974365234375 1.8966749999999999 5.078974365234375 1.9022999999999999 Q 5.078974365234375 1.9079249999999999 5.078224365234375 1.9109249999999998 L 4.743724365234375 1.9109249999999998 Q 4.747474365234375 1.9529249999999998 4.767349365234375 1.9855499999999997 Q 4.787224365234375 2.018175 4.819099365234375 2.0372999999999997 Q 4.850974365234375 2.056425 4.888474365234375 2.056425 Q 4.926724365234375 2.056425 4.960849365234375 2.0369249999999997 Q 4.994974365234375 2.017425 5.008474365234375 1.9859249999999997 L 5.052724365234375 1.9979249999999997 Q 5.040724365234375 2.0256749999999997 5.015974365234375 2.0481749999999996 Q 4.991224365234375 2.0706749999999996 4.957849365234375 2.0830499999999996 Q 4.924474365234375 2.0954249999999996 4.886224365234375 2.0954249999999996 M 4.742224365234375 1.8741749999999997 L 5.030974365234375 1.8741749999999997 Q 5.027974365234375 1.8314249999999999 5.008099365234375 1.7991749999999997 Q 4.988224365234375 1.7669249999999999 4.956349365234375 1.7485499999999998 Q 4.924474365234375 1.7301749999999998 4.886224365234375 1.7301749999999998 Q 4.847974365234375 1.7301749999999998 4.816474365234375 1.7485499999999998 Q 4.784974365234375 1.7669249999999999 4.765099365234375 1.7995499999999998 Q 4.745224365234375 1.8321749999999999 4.742224365234375 1.8741749999999997" fill="#67a97b" fill-rule="nonzero"></path></g></g><defs><clipPath id="SvgjsClipPath120748"><path d=" M -3.4386139557844144 -1.1458717143156634 h 3.0386139557844145 v 4.3796684286313265 h -3.0386139557844145 Z"></path></clipPath><clipPath id="SvgjsClipPath120746534853e1-f5d8-4bfc-ac78-5fbb0cd8796f"><path d=" M -3.4386139557844144 -1.1458717143156634 L -0.3999999999999999 -1.1458717143156634 L -0.3999999999999999 3.2337967143156634 L -3.4386139557844144 3.2337967143156634 Z"></path></clipPath></defs></svg>