<svg xmlns="http://www.w3.org/2000/svg" version="1.1" xmlns:xlink="http://www.w3.org/1999/xlink" viewBox="0 0 7.200387148927289 7.211784066074387"><g transform="matrix(0.8571428571428571,0,0,0.8571428571428571,2.665523800144324,2.2623718905513868)"><g><path d=" M -1.4004222660752517 0.0067758621055147294 Q -1.3656794610338925 -0.049339532376374895 -1.3267276518421558 -0.07520952581840223 Q -1.2877758426504191 -0.10107951926042968 -1.2482983756368737 -0.11545065693962697 Q -1.2250167541511838 -0.12455922987928458 -1.2292671720846302 -0.13954034957679173 Q -1.2335175900180766 -0.15452146927429888 -1.2679719952083164 -0.1805578661637839 L -1.2558646540575396 -0.20011323090747268 Q -1.225458836091673 -0.17893573733938073 -1.1809228799932063 -0.15018597882916962 Q -1.1363869238947397 -0.12143622031895851 -1.0624166311686123 -0.07563888640080307 L -1.0745239723193891 -0.05608352165711428 Q -1.114768845016522 -0.07276735279961755 -1.1396082297064667 -0.08108930979451645 Q -1.164447614396411 -0.08941126678941536 -1.1842262650558895 -0.0916595946325729 Q -1.2040049157153678 -0.09390792247573054 -1.2266788001282927 -0.09147996744539744 Q -1.2778569536137416 -0.08670538832050578 -1.3183273571722087 -0.05648293911772284 Q -1.3587977607306763 -0.02626048991494001 -1.3861708798541716 0.017951639070791225 Q -1.411964780566696 0.059613068307345696 -1.411927108359535 0.10609423202776913 Q -1.4118894361523746 0.15257539574819268 -1.38778128156922 0.20102172566692578 Q -1.3636731269860658 0.24946805558565882 -1.3165672608772512 0.29686306986077465 Q -1.2694613947684366 0.34425808413589054 -1.2005925015406629 0.3868969812321042 Q -1.1291729085637123 0.4311150967392888 -1.065383959627576 0.4506143273298274 Q -1.0015950106914397 0.470113557920366 -0.9481293605253094 0.467343313831308 Q -0.894663710359179 0.46457306974225004 -0.8536876075552557 0.4411325279609192 Q -0.8127115047513326 0.41769198617958825 -0.7874440101757986 0.3768807901927594 Q -0.7637557340112354 0.3386202939551073 -0.7532660317937718 0.2874835542527276 Q -0.7427763295763083 0.23634681455034784 -0.7620462877296043 0.1914840380784193 Q -0.7751221169578603 0.1575131286117376 -0.7995555952841134 0.13238833733139999 Q -0.8239890736103662 0.10726354605106247 -0.8721684588846959 0.06920113894657542 L -0.8600611177339191 0.04964577420288663 Q -0.7826898920088894 0.09754873266900321 -0.7349755405121282 0.12591404002223883 Q -0.687261189015367 0.15427934737547444 -0.6538995132518136 0.17258231408165436 L -0.6660068544025903 0.19213767882534316 Q -0.7046725086887524 0.17290314793366302 -0.7190259327371418 0.17518989629916304 Q -0.7333793567855311 0.17747664466466295 -0.7330570263031592 0.20355146207649033 Q -0.7304279888789343 0.24869665187808526 -0.7356942951943822 0.29424625141300836 Q -0.7409606015098301 0.3397958509479315 -0.7751770004141991 0.39506101218009565 Q -0.825185583428277 0.4758331709040279 -0.8993836519612838 0.5139893843688258 Q -0.9735817204942905 0.5521455978336237 -1.0632436561331808 0.5430909141015713 Q -1.152905591772071 0.5340362303695189 -1.2498321822407896 0.47402593075262556 Q -1.3450583062100572 0.4150684434097128 -1.3948952475704055 0.33599076466377853 Q -1.444732188930754 0.2569130859178443 -1.4470551128730516 0.17138032012392002 Q -1.4493780368153488 0.08584755432999569 -1.4004222660752517 0.0067758621055147294 M -0.7348393079461127 -0.481386374464178 Q -0.6869735809770263 -0.5238701617449851 -0.6302439228631824 -0.536783174185403 Q -0.5735142647493385 -0.5496961866258208 -0.5108747036648765 -0.5250682474683119 Q -0.44823514258041464 -0.5004403083108029 -0.38450946165920397 -0.4286417178571732 Q -0.3207837807379933 -0.35684312740354346 -0.30409814525907325 -0.29209677948596124 Q -0.28741250978015315 -0.22735043156837903 -0.3069688540232908 -0.1725549080300105 Q -0.3265251982664285 -0.117759384491642 -0.374390925235515 -0.0752755972108349 Q -0.4215087502207095 -0.03345561910629041 -0.47861235932649937 -0.020210702077741297 Q -0.5357159684322893 -0.00696578504919218 -0.5980236249286199 -0.03121977321475511 Q -0.6603312814249506 -0.055473761380318065 -0.7240569623461612 -0.12727235183394778 Q -0.7877826432673718 -0.1990709422875775 -0.8048001833344232 -0.26419124119710574 Q -0.8218177234014746 -0.329311540106634 -0.8018874281663909 -0.3844389682331337 Q -0.7819571329313073 -0.43956639635963357 -0.7348393079461127 -0.481386374464178 M -0.7215631244208605 -0.4664283347863385 Q -0.7641935375027031 -0.42859121173936965 -0.7523272185152663 -0.36023595975615774 Q -0.7404608995278293 -0.29188070777294584 -0.6515104699086395 -0.19166184193142105 Q -0.5625600402894496 -0.09144297608989624 -0.4964287810660297 -0.07191974496580095 Q -0.43029752184260983 -0.05239651384170563 -0.3876671087607672 -0.09023363688867445 Q -0.3450366956789246 -0.12807075993564326 -0.35657111007823017 -0.1960520609269092 Q -0.3681055244775358 -0.2640333619181751 -0.45705595409672567 -0.3642522277596999 Q -0.5460063837159155 -0.46447109360122474 -0.6124695475274666 -0.48436827571726604 Q -0.6789327113390179 -0.5042654578333073 -0.7215631244208605 -0.4664283347863385 M -0.06448027508974391 -1.2064310388184953 L 0.23475209026916904 -0.6013814610798525 Q 0.2547009146264299 -0.561044822563943 0.27902212038628804 -0.5490874419817818 Q 0.3033433261461462 -0.5371300613996207 0.34188722517245973 -0.5561922713410032 L 0.35119667653918146 -0.5373685067002455 Q 0.3220792928266264 -0.5263150924885265 0.2942918307378887 -0.5125725690424134 Q 0.268297108138747 -0.4997166600121786 0.24587323152541773 -0.4852799097673977 Q 0.2234493549120884 -0.4708431595226168 0.20727567819004566 -0.453919442989572 L -0.09195668716886735 -1.058969020728215 Q -0.11190551152612821 -1.0993056592441244 -0.13577853241358734 -1.111484693430255 Q -0.15965155330104647 -1.1236637276163857 -0.19909182207215798 -1.104158210467064 L -0.2084012734388797 -1.1229819751078218 Q -0.1783875199815267 -1.13447869652748 -0.15149642763758697 -1.1477779127656538 Q -0.12550170503844532 -1.1606338217958887 -0.10329948202908557 -1.1755187569130685 Q -0.08109725901972575 -1.1904036920302485 -0.06448027508974391 -1.2064310388184953 M -0.13967458347284348 -0.8847622402277906 Q -0.10023431470173191 -0.9042677573771123 -0.05641462816028761 -0.9025113202420111 Q -0.01259494161884328 -0.9007548831069099 0.021666532668426247 -0.8608030198254211 L 0.014446798065443661 -0.8460763286742324 Q -0.016721281095171653 -0.8775175570446002 -0.051587025517555785 -0.8814710195615577 Q -0.08645276993994 -0.8854244820785151 -0.12230755973185958 -0.8676921937609499 Q -0.17519337467494095 -0.8415370684925412 -0.18355823991017456 -0.7693478793462682 Q -0.1919231051454082 -0.6971586901999952 -0.13472671999234065 -0.5837630398185897 Q -0.09881883614927109 -0.5111570904899525 -0.06120816948015875 -0.47007257086631665 Q -0.023597502811046445 -0.4289880512426807 0.015489415415679164 -0.41875512284767746 Q 0.0545763336424048 -0.40852219445267424 0.09401660241351636 -0.428027711601996 Q 0.13166413169503188 -0.44664661433543945 0.14618164353235485 -0.4939883702180975 Q 0.16069915536967777 -0.5413301261007556 0.13594223902752456 -0.6071791586921887 L 0.15290497687624827 -0.5999496687602864 Q 0.17942536672123827 -0.5282791104921262 0.16129798758242403 -0.47357400903387387 Q 0.14317060844360985 -0.4188689075756215 0.08132109605254856 -0.3882807102278215 Q 0.02574617187507322 -0.36079566333559543 -0.029234237496207197 -0.3670729705103655 Q -0.08421464686748761 -0.3733502776851357 -0.1327741380913862 -0.41627143577850634 Q -0.18133362931528474 -0.45919259387187705 -0.2216745852377456 -0.540762240648494 Q -0.2620155411602065 -0.6223318874251111 -0.2605999802793872 -0.6905264340354721 Q -0.2591844193985679 -0.758720980645833 -0.22632059377964536 -0.808442394198638 Q -0.19345676816072283 -0.8581638077514429 -0.13967458347284348 -0.8847622402277906 M 0.564895137851825 -1.1262813470946345 Q 0.6511049031905889 -1.1439413686188364 0.7103343865521072 -1.1014635120259288 Q 0.7695638699136255 -1.058985655433021 0.7922409430072028 -0.948284479486654 L 0.44642222522784336 -0.8774437113270714 L 0.4416296096108139 -0.8958565013260749 L 0.6943809670812806 -0.9476324735220305 Q 0.6865068588539127 -0.996037002438483 0.668381989005708 -1.0346859234193544 Q 0.6502571191575033 -1.0733348444002258 0.6241774544655889 -1.0935115906581663 Q 0.5980977897736744 -1.1136883369161066 0.5647894713473338 -1.1068651467817558 Q 0.5197252758293437 -1.097633771894105 0.4941788476541979 -1.0454453631476015 Q 0.4686324194790521 -0.9932569544010981 0.4818430307864253 -0.8938865375312595 L 0.4855847283104378 -0.8905699580223679 Q 0.48663564640345486 -0.8754737475322559 0.4892682671091011 -0.8576392498320065 Q 0.4919008878147474 -0.8398047521317571 0.49551316494469777 -0.8221709364942826 Q 0.5091595452133992 -0.7555542996416014 0.5405454076240662 -0.7119661402317493 Q 0.5719312700347332 -0.6683779808218973 0.611826465698293 -0.650520955230655 Q 0.6517216613618528 -0.6326639296394129 0.6889486054854099 -0.6402898480248637 Q 0.7183382982145341 -0.6463103099081143 0.742882542074383 -0.6610354616339291 Q 0.7674267859342319 -0.675760613359744 0.7855438783121764 -0.7019287421382605 Q 0.8036609706901211 -0.728096870916777 0.8128898935806156 -0.7677557536832053 L 0.8340884785688985 -0.7639321435442726 Q 0.8299347659731287 -0.7293959788517109 0.811664499311551 -0.6940095781289073 Q 0.7933942326499732 -0.6586231774061035 0.7600805887505291 -0.631893958746722 Q 0.726766944851085 -0.6051647400873407 0.6777841236358781 -0.5951306369485896 Q 0.6072488610859805 -0.5806815284287881 0.5501740471627419 -0.6026750641979108 Q 0.4930992332395032 -0.6246685999670337 0.4544187808988008 -0.6764597440625125 Q 0.41573832855809834 -0.7282508881579913 0.4004864917871967 -0.8027047764051055 Q 0.3828264702629948 -0.8889145417438693 0.3975135391572967 -0.9567418224448825 Q 0.41220060805159864 -1.0245691031458957 0.45523955452537124 -1.0686020349859144 Q 0.49827850099914384 -1.112634966825933 0.564895137851825 -1.1262813470946345 M 1.1557015500523635 -1.1782524055376076 Q 1.195688814301737 -1.1772430999095724 1.223351874947187 -1.1635407250889016 Q 1.251014935592637 -1.1498383502682308 1.2637332374259738 -1.1385138282705418 Q 1.2960414491327832 -1.110689747759086 1.3046288767405787 -1.173493060466943 L 1.3276215536839684 -1.1729127097308227 Q 1.3249156765318753 -1.1449720900376632 1.322944538258657 -1.106509580838342 Q 1.3209733999854392 -1.0680470716390211 1.3193332783398823 -1.0030677672337893 L 1.2963406013964924 -1.0036481179699095 Q 1.2912761194650189 -1.040787733244785 1.2776638785991516 -1.0761424627531495 Q 1.2640516377332844 -1.1114971922615138 1.2366282871744927 -1.1346965423414108 Q 1.2092049366157012 -1.1578958924213079 1.1642192643351559 -1.1590313612528473 Q 1.1292304081169542 -1.1599145036773781 1.1052458538767802 -1.141013679412279 Q 1.0812612996366064 -1.12211285514718 1.080302459289973 -1.0841249541102753 Q 1.0795454800689468 -1.0541345059232452 1.096997247206096 -1.0321871638565914 Q 1.1144490143432453 -1.0102398217899373 1.1429729770710748 -0.9910139654942767 Q 1.1714969397989043 -0.9717881091986161 1.2049309963154526 -0.948937204077631 Q 1.2423133139755362 -0.9239860051813737 1.2726726277512788 -0.8982117531637883 Q 1.3030319415270213 -0.8724375011462028 1.3207690720213303 -0.8419802491062065 Q 1.3385062025156391 -0.8115229970662102 1.3374716642469033 -0.7705360512106025 Q 1.3363109627746632 -0.7245506973238232 1.3115363923633119 -0.6941661509073798 Q 1.2867618219519608 -0.6637816044909364 1.2478703578607249 -0.6487581554581706 Q 1.208978893769489 -0.633734706425405 1.1629935398827096 -0.6348954078976452 Q 1.1410005445455542 -0.6354505259930645 1.1215950674664377 -0.6394414481085516 Q 1.1021895903873213 -0.6434323702240389 1.0843719499600093 -0.650884329000295 Q 1.0745012971011703 -0.6561350634384754 1.064181268720616 -0.6633977774094749 Q 1.0538612403400616 -0.6706604913804745 1.0440662854033251 -0.678910270637358 Q 1.034271330466589 -0.6871600498942414 1.0260594001707568 -0.6788646173668565 Q 1.0178474698749247 -0.6705691848394717 1.0132179274324653 -0.6456780752464167 L 0.9902252504890757 -0.6462584259825369 Q 0.9930320582039723 -0.6781977721006339 0.9951924412824469 -0.7241578933467124 Q 0.9973528243609215 -0.770118014592791 0.999270505054188 -0.8460938166666004 L 1.0222631819975778 -0.8455134659304804 Q 1.027847925361969 -0.7893546674964514 1.0397840153335787 -0.7470400157054979 Q 1.0517201053051883 -0.7047253639145445 1.0791182232232792 -0.6805263322284132 Q 1.1065163411413699 -0.6563273005422818 1.1565004214530867 -0.655065668507238 Q 1.1764940535777735 -0.6545610156932206 1.1972146202718852 -0.6630408810149616 Q 1.217935186965997 -0.6715207463367027 1.232460614907996 -0.6921608030978115 Q 1.246986042849995 -0.7128008598589203 1.2478691852745256 -0.7477897160771221 Q 1.2489794214653642 -0.7917757067514327 1.21769612400549 -0.8205742362284222 Q 1.1864128265456158 -0.8493727657054115 1.1382106397018603 -0.8815992948930188 Q 1.1028024526135445 -0.90550034690164 1.071892832753283 -0.9292878520271073 Q 1.0409832128930216 -0.9530753571525745 1.0222211681517774 -0.9825581602270372 Q 1.0034591234105332 -1.0120409633015002 1.004493661679269 -1.0530279091571078 Q 1.0056291305108085 -1.098013581437653 1.0268417336985873 -1.1259872380809635 Q 1.0480543368863662 -1.153960894724274 1.0823841521477953 -1.1665986866246079 Q 1.1167139674092246 -1.1792364785249418 1.1557015500523635 -1.1782524055376076 M 1.7849690325658667 -1.0834535421967417 L 1.778572215935776 -1.0634515238735576 Q 1.7547602893605567 -1.0710667817665225 1.735597089058375 -1.073520708044645 Q 1.7164338887561934 -1.0759746343227676 1.7055406510109243 -1.0616101861459302 Q 1.6946474132656557 -1.0472457379690925 1.6958363256348878 -1.0017200695239366 L 1.7041200661036586 -0.6862024319125882 L 1.6977573369783157 -0.6892871811856272 L 1.9614432534223551 -1.0312151523565554 L 1.9780559121567818 -1.0175031295381132 L 1.646573686715381 -0.5817686528020896 Q 1.642763778463346 -0.582987094064964 1.638953870211311 -0.5842055353278383 Q 1.6351439619592758 -0.5854239765907127 1.630381576644232 -0.5869470281693057 L 1.609117708174131 -1.0588504588600416 Q 1.6060624877947345 -1.10182330643189 1.5937359758438474 -1.1141645828295985 Q 1.58140946389296 -1.126505859227307 1.5709322161998636 -1.1298565727002114 L 1.577329032829954 -1.1498585910233956 Q 1.5954647431429738 -1.1409089535199974 1.6154860845240846 -1.1329311161375344 Q 1.6355074259051952 -1.1249532787550716 1.6593193524804146 -1.1173380208621067 Q 1.6888461414336866 -1.1078951010748301 1.7223158207389264 -1.0992909993085562 Q 1.7557855000441662 -1.090686897542282 1.7849690325658667 -1.0834535421967417 M 2.307878940157683 -0.9162224788672328 L 2.301786733843311 -0.8971729376070574 Q 2.283080449014707 -0.9010555794796931 2.2629477278971426 -0.8922707322754228 Q 2.242815006779578 -0.8834858850711523 2.2185530026474387 -0.850299213718152 L 1.9494613927521707 -0.4849025724035761 Q 1.9456514845001358 -0.4861210136664505 1.9418415762481005 -0.48733945492932484 Q 1.9380316679960656 -0.48855789619219925 1.9332692826810216 -0.49008094777079225 L 1.9045060946655148 -0.9286863273720741 L 1.9614432534223551 -1.0312151523565554 Q 1.967158115800408 -1.0293874904622438 1.972396739646956 -1.0277121337257915 Q 1.9776353634935044 -1.026036776989339 1.983350225871557 -1.0242091150950277 L 2.0061325873091453 -0.5833168788203036 L 1.9966851089107638 -0.5800388989679996 L 2.1826680431799295 -0.8365780736774993 Q 2.203502041607458 -0.865611580346893 2.2070607501064488 -0.8849464088648606 Q 2.2106194586054397 -0.9042812373828282 2.1968449080021126 -0.9186604500064869 Q 2.183070357398786 -0.9330396626301457 2.1493904037619074 -0.9459105881220327 L 2.1554826100762794 -0.9649601293822081 Q 2.1723225868947185 -0.9585246666362646 2.184552483555973 -0.9540884940004185 Q 2.196782380217228 -0.9496523213645723 2.2085360383469785 -0.9453684538865855 Q 2.220289696476729 -0.9410845864085987 2.2345768524218603 -0.9365154316728197 Q 2.256483824871062 -0.929509394411292 2.274409260852443 -0.9248265806335068 Q 2.292334696833824 -0.9201437668557215 2.307878940157683 -0.9162224788672328 M 2.6949026001364995 -0.6737451267472261 Q 2.7671825298625192 -0.6235493922790303 2.7773232654010367 -0.5513713798186012 Q 2.7874640009395537 -0.47919336735817214 2.7230081146338025 -0.38637936668726014 L 2.433067032891927 -0.5877327106335455 L 2.4430833854506737 -0.6039090106251657 L 2.654994997601959 -0.45674424366159166 Q 2.6845876208791597 -0.4958502105665756 2.7000458445515454 -0.5356408290701186 Q 2.7155040682239306 -0.5754314475736616 2.712104919048879 -0.6082292490988515 Q 2.7087057698738275 -0.6410270506240414 2.6807794333887744 -0.6604208571231169 Q 2.642996742850173 -0.6866595365042193 2.587599682727324 -0.6691262615749469 Q 2.532202622604475 -0.6515929866456747 2.469412475389683 -0.5734495453806221 L 2.469594939609061 -0.5684528758089327 Q 2.4593961228309364 -0.5572732453890019 2.4483074506701006 -0.5430591203821818 Q 2.4372187785092647 -0.5288449953753618 2.426951469186225 -0.5140604642950395 Q 2.3881638561880734 -0.4582077913249332 2.3782839410179695 -0.4054120786558959 Q 2.3684040258478656 -0.3526163659868585 2.3830170517153055 -0.3114221980137397 Q 2.3976300775827455 -0.27022803004062085 2.428841865418981 -0.2485525992475363 Q 2.4534827505528516 -0.23144041704246957 2.481078404871606 -0.22384240001696848 Q 2.5086740591903607 -0.2162443829914674 2.54011433807671 -0.22119502573242122 Q 2.57155461696306 -0.22614566847337503 2.606622809925169 -0.2468391902222774 L 2.6184868180930647 -0.22886016604986748 Q 2.5906284264517385 -0.20802965921113448 2.5524117672282776 -0.19682756307702398 Q 2.5141951080048166 -0.18562546694291346 2.4718604017352876 -0.19128432239898222 Q 2.4295256954657583 -0.19694317785505094 2.3884575535759742 -0.22546348153016219 Q 2.329319429254685 -0.2665327188223224 2.305842643533781 -0.32301360525494444 Q 2.2823658578128767 -0.3794944916875665 2.293147135073376 -0.44323038471992504 Q 2.3039284123338746 -0.5069662777522835 2.3472792739200434 -0.5693898534247553 Q 2.3974750083882395 -0.6416697831507753 2.4566939535139096 -0.6778549532927387 Q 2.5159128986395802 -0.7140401234347022 2.5774814129029866 -0.7132864315900398 Q 2.639049927166393 -0.7125327397453773 2.6949026001364995 -0.6737451267472261 M 2.7188433536907026 0.049981245290367515 Q 2.691651217711556 0.019295943582683245 2.6833550737382565 -0.01343667004920207 Q 2.675058929764957 -0.04616928368108737 2.6857347917195518 -0.07634006377584848 Q 2.696410653674147 -0.1065108438706096 2.7241022674103497 -0.13105008853471733 Q 2.757032835096645 -0.16023189300014273 2.791584718886588 -0.1634594813515713 Q 2.826136602676531 -0.16668706970299985 2.860082907075636 -0.15401235402006308 Q 2.8940292114747415 -0.14133763833712626 2.9261804748137186 -0.12239572012096511 Q 2.958331738152696 -0.10345380190480391 2.987413299598144 -0.08646813783492929 Q 3.016494861043592 -0.06948247376505465 3.04056883693335 -0.06342494251384787 Q 3.0646428128231085 -0.057367411262641055 3.0818565186591265 -0.07262153632411344 L 3.128258682217088 -0.11374135170721283 Q 3.1596924059176423 -0.1415967105151189 3.167867404401294 -0.16554288765871097 Q 3.176042402884946 -0.18948906480230301 3.1677278884275206 -0.21018009786827788 Q 3.159413373970095 -0.23087113093425268 3.142169580422344 -0.25033010274888173 Q 3.125589009703352 -0.26904065257064047 3.101448205133609 -0.2857281195661277 Q 3.0773074005638663 -0.30241558656161494 3.049567328631804 -0.3005478582076982 Q 3.0591748744067564 -0.2836749490281229 3.0564852421234665 -0.2625854758677833 Q 3.053795609840176 -0.24149600270744379 3.0350850600184174 -0.22491543198845207 Q 3.0163745101966586 -0.20833486126946035 2.994910826039884 -0.21069288213837073 Q 2.973447141883109 -0.21305090300728113 2.9568665711641176 -0.23176145282903984 Q 2.937633109130087 -0.25346569062227997 2.942525407809933 -0.2758390098580835 Q 2.947417706489779 -0.29821232909388706 2.964631412325797 -0.3134664541553594 Q 2.984090384140426 -0.3307102477031108 3.004687032800227 -0.331592327055951 Q 3.0252836814600284 -0.3324744064087911 3.0490260459354066 -0.3267910861540195 Q 3.0762549228828044 -0.32018894557815614 3.1090694090505417 -0.30049860536912465 Q 3.1418838952182786 -0.28080826516009316 3.172392145341223 -0.2463808534880571 Q 3.1995842813203694 -0.2156955517803728 3.2117077344221316 -0.18769069711391584 Q 3.223831187523894 -0.15968584244745893 3.222960825398661 -0.13352781366524824 Q 3.222242491117524 -0.09815149396038719 3.2017277149935746 -0.06928293042521583 Q 3.181212938869625 -0.04041436689004446 3.145288683211848 -0.008579671109580383 L 2.9372273691938915 0.17579627528560737 Q 2.9185168193721327 0.1923768460045991 2.9152583486662564 0.205285462067483 Q 2.9119998779603797 0.218194078130367 2.922611443220535 0.23016883001629257 Q 2.929906894336891 0.23840147193786643 2.9402812325888394 0.24256957772277155 Q 2.950655570840788 0.24673768350767666 2.968173332364997 0.24992014029150517 L 2.9627456096025573 0.2694275703019934 Q 2.936843178312679 0.2643222737118708 2.9163835136411063 0.25706609554931065 Q 2.895923848969534 0.24980991738675057 2.874700718449225 0.2258604136148994 Q 2.8554672564151944 0.2041561758216593 2.850350242597464 0.18330392966952597 Q 2.8452332287797337 0.16245168351739273 2.853526840767489 0.14240882942431088 Q 2.8618204527552438 0.122365975331229 2.8842731125413543 0.10246929046843897 Q 2.8326871064856776 0.11210692395512462 2.791350966564042 0.09863200145519926 Q 2.750014826642407 0.08515707895527388 2.7188433536907026 0.049981245290367515 M 2.7726562552408645 0.05039552388331334 Q 2.794542608589934 0.07509344964803485 2.827664477074121 0.0838222426984061 Q 2.8607863455583082 0.09255103574877732 2.904480506348854 0.08456227409192793 L 3.051171216951442 -0.045429400344967036 Q 3.03048936912753 -0.04313567617049685 3.0066283911480487 -0.052722319475778684 Q 2.9827674131685673 -0.06230896278106052 2.9562535438740474 -0.07488929405782374 Q 2.929739674579527 -0.08746962533458696 2.901890174385425 -0.09552601031413563 Q 2.8740406741913227 -0.10358239529368433 2.8447185591094093 -0.09897657646061819 Q 2.815396444027496 -0.09437075762755207 2.785459564312682 -0.06784184447716533 Q 2.7555226845978678 -0.04131293132677861 2.7518198475873126 -0.009304510589834072 Q 2.748117010576757 0.022703910147110457 2.7726562552408645 0.05039552388331334 M 3.5852655925927976 0.36424597584347485 Q 3.5982116083951983 0.38793987115100076 3.598387922305066 0.4112039832854706 Q 3.5985642362149335 0.43446809541994047 3.588721125616633 0.4529508758858129 Q 3.5788780150183337 0.4714336563516853 3.55957187810109 0.48198226182030796 Q 3.537633086149677 0.49396931348919726 3.513527632231892 0.48947742174767717 Q 3.489422178314107 0.4849855300061571 3.476955644578462 0.4621691863766878 Q 3.466886521176595 0.4437406011375009 3.471061755762269 0.4232267663873964 Q 3.4752369903479425 0.402712931637292 3.4971757822993554 0.3907258799684027 Q 3.5138492641824293 0.3816157207000468 3.5307307735371256 0.38435700541844 Q 3.547612282891822 0.38709829013683317 3.5608659631840966 0.39467060541752325 Q 3.5662851054973728 0.38373292300357187 3.5595723565627946 0.37144719951078065 Q 3.544708412493372 0.34424309749102877 3.5160071727136817 0.33029717209653753 Q 3.487305932933991 0.3163512467020462 3.453226257068752 0.3144602964329406 Q 3.419146581203513 0.3125693461638349 3.38583133099912 0.3193769965528259 Q 3.352516080794728 0.3261846469418169 3.327944633809145 0.33961014481097296 L 3.1419036780611647 0.44126034296315453 Q 3.098903645836395 0.4647549642341776 3.0980892820509967 0.49767664116025523 Q 3.097274918265598 0.5305983180863328 3.120769539536621 0.573598350311102 L 3.1023409542974343 0.583667473712969 Q 3.0921904184401123 0.5630043030509136 3.0733684991534633 0.5254279094724067 Q 3.054546579866814 0.48785151589389975 3.032010922729302 0.4466065870252436 Q 3.0157085324596125 0.41676982997132206 2.998329555706216 0.3880910718565622 Q 2.9809505789528195 0.3594123137418024 2.9719218321399183 0.3449734172815972 L 2.990350417379105 0.33490429387973014 Q 3.0100091821160837 0.3708839126800472 3.031563393455154 0.37904883604470263 Q 3.053117604794224 0.38721375940935804 3.089974775272598 0.36707551260562393 L 3.3646484505042866 0.21699762571112952 Q 3.40413827601683 0.19542093270712874 3.415333924026956 0.1710712414229797 Q 3.4265295720370816 0.14672155013883065 3.4054323610998365 0.10810927630434403 L 3.423860946339023 0.09804015290247697 Q 3.4365717174410317 0.12756025280055217 3.450956179443699 0.15388680314224756 Q 3.464861159379611 0.17933580180588649 3.480638865021831 0.2009127340407396 Q 3.496416570664052 0.22248966627559275 3.51310803787907 0.23843942872554705 L 3.4034140781220055 0.2983746870699937 Q 3.4341373795199557 0.2941227755927037 3.469854536391112 0.2979678640235729 Q 3.5055716932622687 0.30181295245444195 3.5370277067593108 0.31767230978296945 Q 3.5684837202563524 0.33353166711149684 3.5852655925927976 0.36424597584347485" fill="#1c3423" fill-rule="nonzero"></path></g><g><path d=" M -1.1330252155777112 1.9654840071130022 L -1.1182023304685984 2.029797940883547 L -1.3413057062150535 2.183839765497955 L -1.0730599076363 2.2256631028211156 L -1.0580124333588674 2.2909514901336387 L -1.3811209134498539 2.2381697689292994 L -1.6633763735332716 2.4427885736689867 L -0.9927256793709267 2.551956547084109 L -0.9756569025786148 2.626015016274433 L -1.7351202570472495 2.4921628096461923 L -1.7490447854830826 2.431746690043559 L -1.440475378328485 2.2077223142085622 L -1.8161969468107304 2.140385080992151 L -1.8298968860782439 2.080943414931496 L -1.2054116217698643 1.6291490428309867 L -1.1885674341458725 1.7022330584793333 L -1.7435547066234731 2.0949086591828574 L -1.4004355819253647 2.1543667643191955 L -1.1330252155777112 1.9654840071130022 M -1.3793786613351313 3.2336206627367186 Q -1.4102389030673086 3.186891170119833 -1.4187497514937633 3.1349891907831844 Q -1.4272605999202181 3.0830872114465353 -1.4152561800540215 3.0332159381153274 Q -1.403251760187825 2.9833446647841195 -1.3731094311797902 2.9400700763750844 Q -1.3429671021717555 2.8967954879660494 -1.2962376095548698 2.865935246233872 Q -1.235322378107858 2.825706716832998 -1.1659595718996798 2.8200453464223347 Q -1.0965967656915017 2.814383976011672 -1.033625681000166 2.843502569604025 Q -0.9706545963088306 2.8726211631963783 -0.9293239154175217 2.935205305093993 Q -0.8868910830357779 2.999458357442211 -0.8860790710219311 3.067829335470095 Q -0.8852670590080842 3.136200313497979 -0.917566100546651 3.197077418518585 Q -0.9498651420852178 3.2579545235391913 -1.009945918306928 3.297631977194848 Q -1.0166215601093402 3.3020405831565878 -1.0228799742991017 3.3061736512457185 Q -1.0291383884888634 3.310306719334849 -1.0330272851352869 3.3116765670904176 L -1.2788070675022705 2.9395095366059345 Q -1.322781181393069 2.9745420544646195 -1.3444764764454231 3.020626912852069 Q -1.3661717714977772 3.066711771239519 -1.3640296605712245 3.1162285498178792 Q -1.3618875496446718 3.1657453283962393 -1.3343337623837992 3.2074680896613157 Q -1.3062288993777091 3.250025306151694 -1.2594591171124754 3.27366504952726 Q -1.2126893348472416 3.2973047929028256 -1.167722851970663 3.2891798056591206 L -1.1485606666076578 3.34722987587539 Q -1.1882527218672938 3.3542683948436114 -1.2314718782185157 3.3432636447651842 Q -1.2746910345697375 3.332258894686757 -1.3129824164493893 3.304218386956927 Q -1.3512737983290413 3.276177879227097 -1.3793786613351313 3.2336206627367186 M -1.2390209129529302 2.9108379146396763 L -1.0268567510442113 3.232103176380766 Q -0.9814971061828938 3.197354038002165 -0.9602190387431904 3.151544717487324 Q -0.938940971303487 3.105735396972483 -0.9419175374553411 3.0567696941393403 Q -0.9448941036071954 3.0078039913061976 -0.9729989666132854 2.9652467748158196 Q -1.0011038296193755 2.9226895583254415 -1.0446931639383958 2.9011437946206047 Q -1.0882824982574164 2.879598030915768 -1.1391848078062956 2.8814567623622365 Q -1.1900871173551746 2.883315493808705 -1.2390209129529302 2.9108379146396763 M -0.949981962605454 3.5332675063742647 Q -0.917414629678798 3.496656458505563 -0.8728993305110444 3.4887420324363276 Q -0.8283840313432909 3.480827606367092 -0.778438932127566 3.4991575562942305 Q -0.7284938329118412 3.5174875062213693 -0.6799281571676453 3.5606890703077494 Q -0.6515359159633463 3.585945369312095 -0.6248900187172886 3.617678572112199 Q -0.5982441214712308 3.6494117749123034 -0.5823105390900354 3.6796462081383727 L -0.5530664034007934 3.6467709814807634 Q -0.5092001998669303 3.597458141494349 -0.5124186668616196 3.5423977975960033 Q -0.515637133856309 3.4873374536976574 -0.5671914665693785 3.4414773318213463 Q -0.5985723647425512 3.4135624750270694 -0.6391344279883793 3.3982256231584023 Q -0.6796964912342074 3.382888771289735 -0.7325109013163001 3.376059562867045 L -0.7200344781348054 3.32291505360601 Q -0.6586667211197699 3.3306609169499874 -0.61042448292012 3.3501528756378214 Q -0.5621822447204698 3.3696448343256553 -0.5240768683673316 3.403541446147277 Q -0.4523491011143653 3.467346833105623 -0.4470630731616876 3.5456606754866704 Q -0.44177704520900984 3.6239745178677176 -0.506247071614839 3.6964494493629023 L -0.6664251784581874 3.8765160317375362 Q -0.6757301307229462 3.8869763311285936 -0.675567301678274 3.89582073538791 Q -0.6754044726336015 3.9046651396472263 -0.6663559769322451 3.9140526167067207 L -0.702246507096315 3.954399485786514 Q -0.7111299532082002 3.947835616106422 -0.71777190659343 3.943265664768778 Q -0.72441385997866 3.9386957134311347 -0.7267378775000508 3.935289991398985 Q -0.744752344108028 3.917926840969697 -0.7444958875446256 3.898079064519145 Q -0.7442394309812231 3.878231288068593 -0.7336877246162344 3.864864856503398 L -0.7091785898541074 3.8358079758516155 Q -0.7652381134684761 3.8461679860895464 -0.8233629774960345 3.827253700964862 Q -0.8814878415235926 3.8083394158401775 -0.9248233675722597 3.7697903278861764 Q -0.9621815796831796 3.7365583555120376 -0.9781519833721452 3.69357642668129 Q -0.9941223870611106 3.650594497850542 -0.9866742426779034 3.6083686154412082 Q -0.979226098294696 3.566142733031874 -0.949981962605454 3.5332675063742647 M -0.7158072199705441 3.7951132432344887 Q -0.6982834610413828 3.7919639777657417 -0.6851601627707964 3.786238679301799 Q -0.6720368645002099 3.7805133808378564 -0.6653904700253821 3.7730417384156727 L -0.6148778720166913 3.7162572560070743 Q -0.6316411434348408 3.683946379643821 -0.654260162143433 3.6544568901151706 Q -0.676879180852025 3.6249674005865207 -0.7045242578141058 3.600375741029658 Q -0.7590672474960488 3.5518570613634157 -0.8119641823728772 3.5436160492510242 Q -0.8648611172497055 3.5353750371386328 -0.8980930896238442 3.572733249249553 Q -0.9173676336008447 3.5944010122738863 -0.9231084758783794 3.623423292162697 Q -0.9288493181559142 3.652445572051508 -0.9181481060150465 3.684048326025112 Q -0.9074468938741787 3.715651079998716 -0.8783074884276612 3.7415720184505443 Q -0.8416964405589596 3.7741393513772 -0.7973138107625051 3.7881904072930683 Q -0.7529311809660504 3.8022414632089365 -0.7158072199705441 3.7951132432344887 M -0.006235006486943306 3.8421883232252623 Q -0.0660873405242901 3.8098510674622594 -0.12869388905793733 3.8152055124105324 Q -0.19130043759158444 3.820559957358805 -0.24103794105759457 3.864562011276419 L -0.4033626453416651 4.144966523328364 L -0.4622129750315793 4.110898375515657 L -0.2011908425254042 3.6600009965679323 L -0.14580229693489666 3.692065135685773 L -0.20842756864943007 3.8002458887922335 Q -0.15750540642403998 3.76617341611573 -0.10195898441178713 3.7590428480011466 Q -0.046412562399534285 3.7519122798865636 -0.0011362524620852632 3.77350060447297 Q 0.008019209960147933 3.777645180185281 0.014510055146535583 3.7814026964881533 Q 0.021000900332923123 3.785160212791025 0.024827128283465227 3.7885306696844583 L -0.006235006486943306 3.8421883232252623 M 0.5310144340134113 4.4782170930826375 Q 0.5225225191542484 4.479159102649854 0.5040778581529844 4.482736039963878 Q 0.4856331971517206 4.486312977277902 0.46089469920600257 4.486231005394279 Q 0.43615620126028454 4.486149033510656 0.4090148624644122 4.479268064947461 Q 0.3809041901401159 4.472141347507009 0.3588894228151302 4.455212082324292 Q 0.3368746554901445 4.438282817141576 0.3278640023020659 4.412786579593181 Q 0.31885334911398744 4.387290342044786 0.32696306206346715 4.355302335606794 L 0.41862739328031373 3.9937409295046375 L 0.34883537923378494 3.9760470103421364 L 0.3621058186056608 3.92370299980724 L 0.4318978326521896 3.9413969189697413 L 0.4751496350494148 3.770794217967115 L 0.5410643149822476 3.7875051416205885 L 0.49781251258502235 3.9581078426232144 L 0.6141325359959037 3.98759770789405 L 0.6008620966240278 4.039941718428946 L 0.48454207321314646 4.010451853158111 L 0.39754697066418215 4.353595922220211 Q 0.39260466915783526 4.381228758770598 0.407096855152082 4.399345782397787 Q 0.4215890411463288 4.417462806024977 0.44485304582850504 4.423360779079144 Q 0.4719943846243773 4.430241747642339 0.4966236701120707 4.426685303299221 Q 0.521252955599764 4.423128858956103 0.527082618750912 4.420480269228692 L 0.5310144340134113 4.4782170930826375 M 1.2160502264893758 4.560788728350592 L 1.148094213706881 4.558343257699491 L 1.1585593895814474 4.267531497115579 Q 1.1617241163064023 4.1795884217499975 1.1323445140669417 4.134002360588157 Q 1.1029649118274811 4.088416299426316 1.0450024303365297 4.086330456812141 Q 1.0070270114286648 4.08496387027182 0.9688499944133702 4.103102651151855 Q 0.9306729773980755 4.121241432031889 0.9009866592934725 4.1536948219533185 Q 0.8713003411888696 4.186148211874747 0.8577617030802328 4.228688842784072 L 0.8462895687022716 4.547482490984305 L 0.7783335559197767 4.545037020333203 L 0.8045864026154248 3.8155092360505383 L 0.8725424153979197 3.8179547067016397 L 0.8607825785904171 4.144743179935108 Q 0.8938483682083762 4.087895545358629 0.9505531836038389 4.055413798007748 Q 1.0072579989993016 4.022932050656866 1.0702172461360249 4.025197707289504 Q 1.11518813694797 4.026816033455674 1.1460923556572489 4.043938511838462 Q 1.1769965743665276 4.061060990221251 1.1953870948724108 4.092242535332465 Q 1.213777615378294 4.123424080443679 1.2213152999911299 4.1642215474076645 Q 1.2288529846039657 4.205019014371649 1.2270188816156398 4.25598602395852 L 1.2160502264893758 4.560788728350592 M 1.794197336751619 4.483023793074549 Q 1.7397061701075458 4.495935522539181 1.688042273993169 4.486082003458016 Q 1.6363783778787924 4.4762284843768505 1.593675151316895 4.447808694771661 Q 1.5509719247549976 4.419388905166471 1.5206995588027405 4.37620518300577 Q 1.4904271928504838 4.333021460845068 1.4775154633858518 4.278530294200995 Q 1.460684101762314 4.2074971662542575 1.479216933641491 4.140416735855085 Q 1.497749765520668 4.073336305455913 1.546744420994619 4.024216312225164 Q 1.5957390764685702 3.9750963189944146 1.6687183175097398 3.957803824175712 Q 1.7436436716453403 3.9400501961618426 1.8081253872207972 3.962795709047814 Q 1.872607102796254 3.985541221933785 1.9186672480081228 4.036802445320099 Q 1.9647273932199916 4.088063668706413 1.9813281882459466 4.158123740105935 Q 1.9831727210266084 4.16590819248366 1.9849019705084787 4.173206116587777 Q 1.986631219990349 4.180504040691894 1.9865804298334642 4.184626833478339 L 1.5525972097753096 4.287459536000228 Q 1.5703742219760193 4.340797869656388 1.6061898674720805 4.3770158146243245 Q 1.6420055129681415 4.413233759592261 1.6892398644631634 4.428247621148993 Q 1.7364742159581852 4.443261482705726 1.785127043318965 4.43173315282659 Q 1.8347529272269603 4.419974256349872 1.873032268588119 4.384184005932253 Q 1.9113116099492782 4.348393755514635 1.919142830700685 4.303375181775091 L 1.9802422325477285 4.3053406572731605 Q 1.9732042919028392 4.345032815081461 1.948010423772206 4.381833209218158 Q 1.9228165556415728 4.418633603354856 1.8833198881505935 4.444949249976343 Q 1.8438232206596143 4.471264896597831 1.794197336751619 4.483023793074549 M 1.5393533333993255 4.240240898381829 L 1.913980104077329 4.151472758312486 Q 1.8969455818262522 4.096930801511528 1.8612452196289824 4.0611993848172 Q 1.8255448574317126 4.025467968122871 1.7785410725342734 4.011427163113354 Q 1.7315372876368342 3.997386358103837 1.681911403728839 4.009145254580555 Q 1.6322855198208437 4.020904151057273 1.5970660264785652 4.05442783356253 Q 1.5618465331362867 4.087951516067785 1.5460901816299213 4.1363894907076055 Q 1.530333830123556 4.184827465347426 1.5393533333993255 4.240240898381829 M 2.839713897307068 4.004751590516679 Q 2.7931153425272712 4.037578023348077 2.741901313441036 4.047356736185372 Q 2.6906872843548015 4.057135449022667 2.6397810888762767 4.046514278564462 Q 2.588874893397752 4.035893108106259 2.544714068363637 4.007064796808052 Q 2.500553243329522 3.978236485509846 2.4688786151588746 3.933272967739867 Q 2.426261842711094 3.8727765983766225 2.4181099112201814 3.803903192674803 Q 2.409957979729269 3.7350297869729827 2.4374590876253683 3.6716208833041204 Q 2.4649601955214675 3.608211979635257 2.527909120399438 3.563867500196351 Q 2.587587971257774 3.5218266300789463 2.6526617356002378 3.516962969492365 Q 2.7177354999427017 3.5120993089057837 2.7726349324066355 3.543148500765444 L 2.730772660020544 3.598325943173304 Q 2.6897511596975363 3.5782950542452148 2.6445013763201954 3.5826490299345974 Q 2.5992515929428546 3.58700300562398 2.5600107047072367 3.614646317482 Q 2.5174997424519834 3.644593238661521 2.497895809661045 3.691430038500199 Q 2.4782918768701068 3.738266838338877 2.4845125645225785 3.7913757174941587 Q 2.4907332521750507 3.8444845966494414 2.5252873919975753 3.893535706943964 Q 2.5592656294897247 3.9417692987335777 2.6081644224753706 3.966036726379435 Q 2.657063215461017 3.9903041540252926 2.7086297275877906 3.988839631209048 Q 2.7601962397145643 3.9873751083928037 2.802707201969817 3.9574281872132824 Q 2.8305028311367133 3.9378475079805186 2.849343836076833 3.9098963625147887 Q 2.8681848410169524 3.8819452170490587 2.875590528109611 3.851652382934608 Q 2.8829962152022697 3.8213595488201575 2.8757147073125298 3.7971318860593453 L 2.9420064937489214 3.774896800022367 Q 2.9518696209040898 3.813207617329245 2.9422893882406314 3.856041238961253 Q 2.9327091555771725 3.8988748605932604 2.906649489064838 3.9374156672955847 Q 2.8805898225525035 3.9759564739979085 2.839713897307068 4.004751590516679 M 3.3870390084224185 3.4953423187448616 Q 3.3511607443787406 3.538339413637565 3.3042204750525292 3.5610354731101426 Q 3.2572802057263184 3.58373153258272 3.2063839348694745 3.5861951910141547 Q 3.1554876640126306 3.5886588494455895 3.106076126171095 3.5721740101035 Q 3.0566645883295593 3.555689170761411 3.015203103968738 3.5210922732907215 Q 2.972206009076035 3.485214009247044 2.947140436121281 3.4395525697991913 Q 2.9220748631665265 3.393891130351339 2.9157060807210327 3.3429923227998652 Q 2.9093372982755388 3.2920935152483914 2.923261941166281 3.2418480744565614 Q 2.9371865840570237 3.1916026336647314 2.9730648481007016 3.1486055387720278 Q 3.008943112144379 3.1056084438793246 3.055563039827343 3.0832962870397176 Q 3.102182967510307 3.0609841302001106 3.1533995800103978 3.0581365691357054 Q 3.204616192510489 3.0552890080712998 3.2540277303520244 3.0717738474133895 Q 3.3034392681935603 3.088258686755479 3.3464363630862635 3.1241369507991568 Q 3.3878978474470847 3.1587338482698457 3.4129634204018386 3.2043952877176984 Q 3.438028993356593 3.2500567271655507 3.444718117445334 3.300571632084054 Q 3.451407241534075 3.351086537002557 3.4374825986433324 3.401331977794387 Q 3.42355795575259 3.451577418586217 3.3870390084224185 3.4953423187448616 M 3.0601780560027825 3.468754393227278 Q 3.104710761427368 3.505914023843944 3.157518935365175 3.5167674456709217 Q 3.210327109302982 3.5276208674979 3.258991135435616 3.512224031441023 Q 3.3076551615682495 3.496827195384146 3.3409706924659504 3.456901321555207 Q 3.3742862233636512 3.4169754477262684 3.380337057236552 3.366020689268961 Q 3.386387891109453 3.3150659308116532 3.3658071011601582 3.264029854502213 Q 3.345226311210864 3.2129937781927724 3.3014614110522196 3.1764748308626003 Q 3.256928705627634 3.1393152002459344 3.203416287413609 3.1285253394086796 Q 3.1499038691995844 3.1177354785714253 3.10085594043398 3.132811972985055 Q 3.051808011668376 3.147888467398685 3.018492480770675 3.187814341227624 Q 2.985176949872974 3.2277402150565626 2.9802142629092616 3.2789517541673936 Q 2.975251575945549 3.330163293278225 2.995064560628902 3.380558686301171 Q 3.0148775453122556 3.4309540793241173 3.0601780560027825 3.468754393227278 M 3.4688158468217862 2.9304069377420827 Q 3.401134707318847 2.9004859859593664 3.3572184769126587 2.8477236442096805 Q 3.313302246506471 2.794961302459995 3.3012958848126592 2.730611886931357 Q 3.2892895231188475 2.6662624714027183 3.3171887889702996 2.6031543818661937 Q 3.3434707060767397 2.543704732302801 3.395848115937028 2.5105519505744542 Q 3.448225525797316 2.4773991688461074 3.504767193869516 2.470688001167295 L 3.213921216005533 2.342108775938864 L 3.2414161446707324 2.2799152963956226 L 3.834083420318094 2.541925793087519 Q 3.846887960224055 2.5475865136950606 3.855258948297912 2.5447270454460065 Q 3.863629936371769 2.5418675771969528 3.869396592600087 2.53129659446381 L 3.9187855322373673 2.5531308025214683 Q 3.9134426184921574 2.5726360139458864 3.9080802994500923 2.582292386685746 Q 3.8986746085454977 2.6010948593584353 3.8775714536729233 2.609259224270916 Q 3.8564682988003494 2.617423589183397 3.839090708927973 2.609741182644591 L 3.7924455992705415 2.5891199861456915 Q 3.826556256154132 2.6380940924363627 3.832564685081216 2.6986985376679478 Q 3.8385731140083 2.759302982899533 3.815525894391883 2.811435752516662 Q 3.793691686334225 2.860824692153942 3.7551729245074914 2.8935440287507523 Q 3.716654162680758 2.926263365347563 3.6683536871965323 2.941537987044931 Q 3.6200532117123063 2.9568126087422995 3.5682143890924034 2.954122540084767 Q 3.5163755664725005 2.951432471427235 3.4688158468217862 2.9304069377420827 M 3.717871322304447 2.564898565564227 L 3.5706191133858898 2.4998002785775055 Q 3.5324367702064148 2.497134069785079 3.4937299970032325 2.5117298125958234 Q 3.4550232238000502 2.5263255554065682 3.4242592416193665 2.55263291940197 Q 3.3934952594386827 2.5789402833973725 3.3789391207335773 2.611866243155559 Q 3.3619569589109544 2.6502798628734436 3.3642151694608065 2.6884525034044904 Q 3.366473380010659 2.7266251439355376 3.384005418745951 2.7611632043585583 Q 3.4015374574812434 2.7957012647815787 3.431036253804708 2.8229560077718685 Q 3.460535050128173 2.850210750762158 3.4971194498594915 2.8663842382122753 Q 3.535533069577376 2.883366400034898 3.5761511385227958 2.8854693682099066 Q 3.616769207468216 2.8875723363849146 3.654667306298893 2.874805813560736 Q 3.692565405129569 2.8620392907365573 3.721350966540949 2.8364973359517003 Q 3.750136527952329 2.8109553811668433 3.766714352588699 2.7734563714422418 Q 3.777227119431275 2.749676511616885 3.7794024607135275 2.7200240599424323 Q 3.7815778019957795 2.69037160826798 3.7758827253627776 2.6599731526798385 Q 3.770187648729775 2.6295746970916962 3.7551107410572837 2.6043222347358155 Q 3.7400338333847922 2.579069772379935 3.717871322304447 2.564898565564227 M 4.0508745694677675 1.9932820962149516 Q 4.043120762516769 2.0487426991486255 4.015181732218162 2.09330345078023 Q 3.987242701919556 2.137864202411835 3.9452577759678102 2.1673347978049797 Q 3.903272850016065 2.1968053931981246 3.8520448361000916 2.209332986351833 Q 3.8008168221841183 2.2218605795055413 3.7453562192504446 2.2141067725545422 Q 3.6730593618547625 2.203999131350561 3.6172853574601977 2.1623756952382567 Q 3.5615113530656326 2.1207522591259527 3.533532113834023 2.0572667318616986 Q 3.5055528746024134 1.9937812045974446 3.515937437483216 1.9195036113827026 Q 3.52659892204084 1.8432452823489012 3.5712040329020613 1.7914221785721283 Q 3.6158091437632827 1.7395990747953556 3.680295609957394 1.7152938145047165 Q 3.744782076151506 1.6909885542140777 3.8160885656376577 1.700957734579648 Q 3.824011508913897 1.7020654212869337 3.8314392682353713 1.703103877575014 Q 3.8388670275568453 1.704142333863094 3.842690038356554 1.7056865451262668 L 3.7809365044253815 2.1473906327765984 Q 3.837089411551109 2.150192600179948 3.8838396278335425 2.1299708970482714 Q 3.9305898441159766 2.1097491939165947 3.9617288114414433 2.0711893091410474 Q 3.9928677787669105 2.0326294243655 3.9997908206874455 1.9831110288890055 Q 4.006852323446392 1.9326022655029809 3.987402725946301 1.8839405438206926 Q 3.9679531284462106 1.8352788221384044 3.928849971337348 1.8116368445536168 L 3.952865047356058 1.7554205113059247 Q 3.987293286594092 1.7763894488795988 4.012435116212436 1.8132254150464062 Q 4.0375769458307795 1.8500613812132136 4.047756509028747 1.8964173570210703 Q 4.057936072226713 1.942773332828927 4.0508745694677675 1.9932820962149516 M 3.7321315551815952 2.1425867875135336 L 3.7854389779697155 1.7612951423445256 Q 3.728434163772869 1.7573643461932353 3.6821791314451997 1.7776552797441174 Q 3.6359240991175312 1.7979462132949993 3.605775499701594 1.8366445589089573 Q 3.575626900285657 1.8753429045229155 3.568565397526711 1.92585166790894 Q 3.5615038947677653 1.9763604312949643 3.579952553337998 2.021348174036282 Q 3.598401211908231 2.0663359167775996 3.6378130037548977 2.0986037128510073 Q 3.6772247956015645 2.1308715089244146 3.7321315551815952 2.1425867875135336" fill="#67a97b" fill-rule="nonzero"></path></g><g transform="matrix(1,0,0,1,0,0)" clip-path="url(#SvgjsClipPath24188)"><g clip-path="url(#SvgjsClipPath24186c5181215-a063-4f6b-bebd-afa20fe630ad)"><path d=" M 1.8999204472713933 1.921192952279278 C 1.8897604448795673 1.921192952279278 1.8799179425624863 1.920557952129789 1.8700754402454054 1.9196054519055556 C 1.8700754402454054 1.9196054519055556 1.8697579401706608 1.9196054519055556 1.8697579401706608 1.9196054519055556 L 1.8697579401706608 1.9199229519803003 L 1.8697579401706608 3.0019632067097297 C 1.8697579401706608 3.038793215380098 1.839912933144673 3.0686382224060855 1.803082924474305 3.0686382224060855 L 1.352867818486532 3.0686382224060855 L 1.352867818486532 3.1746832473707656 L 1.869122940021172 3.1746832473707656 C 1.9281779539236585 3.1746832473707656 1.975802965135341 3.1267407360843382 1.975802965135341 3.0680032222565963 L 1.975802965135341 1.9116679500369416 C 1.9681829633414718 1.913572950485409 1.9599279613981135 1.9154779509338766 1.9519904595295 1.9167479512328545 C 1.9351629555680385 1.9196054519055556 1.9177004514570881 1.921192952279278 1.8999204472713933 1.921192952279278 Z" fill="#1c3423" transform="matrix(1,0,0,1,0,0)" fill-rule="nonzero"></path></g><g clip-path="url(#SvgjsClipPath24186c5181215-a063-4f6b-bebd-afa20fe630ad)"><path d=" M 0.39973259410338974 3.0686382224060855 C 0.36290258543302184 3.0686382224060855 0.333057578407034 3.038793215380098 0.333057578407034 3.0019632067097297 L 0.333057578407034 1.9199229519803003 L 0.333057578407034 1.9196054519055556 C 0.3232150760899529 1.920557952129789 0.31337257377287187 1.921192952279278 0.3032125713810462 1.921192952279278 C 0.28543256719535137 1.921192952279278 0.2682875631591456 1.9196054519055556 0.2511425591229398 1.9167479512328545 C 0.24288755717958152 1.9154779509338766 0.23495005531096774 1.9138904505601537 0.22701255344235394 1.9116679500369416 L 0.22701255344235394 3.0680032222565963 C 0.22701255344235394 3.127058236159083 0.2749550647287811 3.1746832473707656 0.3336925785565231 3.1746832473707656 L 0.8496302000164185 3.1746832473707656 L 0.8496302000164185 3.0686382224060855 L 0.39973259410338974 3.0686382224060855 Z" fill="#1c3423" transform="matrix(1,0,0,1,0,0)" fill-rule="nonzero"></path></g><g clip-path="url(#SvgjsClipPath24186c5181215-a063-4f6b-bebd-afa20fe630ad)"><path d=" M 1.352867818486532 2.4476080762057437 C 1.352867818486532 2.380933060509388 1.2985753057052136 2.32664054772807 1.231900290008858 2.32664054772807 L 0.9705977284940923 2.32664054772807 C 0.9039227127977366 2.32664054772807 0.8496302000164184 2.380933060509388 0.8496302000164184 2.4476080762057437 L 0.8496302000164184 3.0686382224060855 L 0.8496302000164184 3.1746832473707656 L 0.8496302000164184 3.17500074744551 L 1.3528678184865317 3.17500074744551 L 1.3528678184865317 3.1746832473707656 L 1.3528678184865317 3.0686382224060855 L 1.3528678184865317 2.4476080762057437 Z M 0.9559927250558431 3.0686382224060855 L 0.9559927250558431 2.472690582110563 C 0.9559927250558431 2.4507830769531895 0.9737727292415381 2.433003072767494 0.9956802343989121 2.433003072767494 L 1.2071352841787832 2.433003072767494 C 1.2166602864211196 2.433003072767494 1.225550288513967 2.4364955735896845 1.2322177900836024 2.442210574935086 C 1.2350752907563034 2.4447505755330425 1.2376152913542597 2.4476080762057437 1.2398377918774717 2.4507830769531895 C 1.2411077921764497 2.453005577476401 1.242377792475428 2.4552280779996125 1.2436477927744063 2.457450578522825 C 1.245235293148129 2.460943079345015 1.2461877933723626 2.464753080241949 1.2465052934471073 2.4688805812136287 C 1.2465052934471073 2.470150581512607 1.2468227935218519 2.471420581811585 1.2468227935218519 2.473008082185308 L 1.2468227935218519 3.0689557224808297 L 0.9559927250558431 3.0689557224808297 Z" fill="#1c3423" transform="matrix(1,0,0,1,0,0)" fill-rule="nonzero"></path></g><g clip-path="url(#SvgjsClipPath24186c5181215-a063-4f6b-bebd-afa20fe630ad)"><path d=" M 2.185670514541489 1.5195553577274212 L 2.101532994734183 1.275715300323606 L 2.0901029920433793 1.2426952925501729 C 2.0897854919686347 1.242377792475428 2.0897854919686347 1.2417427923259392 2.0897854919686347 1.2414252922511946 C 2.08946799189389 1.24110779217645 2.08946799189389 1.240472792026961 2.0891504918191455 1.2401552919522165 L 2.0891504918191455 1.239837791877472 C 2.0875629914454223 1.2360277909805373 2.0859754910716997 1.232535290158347 2.084070490623233 1.229042789336157 C 2.0837529905484877 1.2284077891866683 2.083435490473743 1.227772789037179 2.083117990398999 1.2271377888876898 C 2.0621629854658585 1.1849102789466646 2.0316829782903816 1.1503027707995084 2.003107971563372 1.1239502645957107 C 1.9799304661070198 1.104582760036293 1.9545304601274558 1.0858502556263647 1.9269079536246798 1.0680702514406697 C 1.902142947794605 1.0521952477034422 1.8761079416655515 1.0366377440409593 1.8481679350880313 1.0220327406027099 C 1.759902914309046 0.97599522976475 1.65830289039079 0.9388477210196374 1.5481303644544304 0.911542714591606 C 1.52717535952129 0.9064627133956931 1.5059028545134052 0.9017002122745248 1.4843128494307756 0.8972552112281013 C 1.3792203246903296 0.8763002062949607 1.2668252982307584 0.8636002033051788 1.1515727710984867 0.8607427026324779 L 1.1515727710984867 0.7448551753507167 C 1.1515727710984867 0.7362826733326139 1.1579227725933776 0.7289801716134893 1.1661777745367359 0.7273926712397665 C 1.3404853155714942 0.6956426637653113 1.4671678453945702 0.5438776280374159 1.4671678453945702 0.3667125863299565 C 1.4671678453945702 0.2514600591976845 1.4144628329869746 0.14541503423300445 1.3227053113857996 0.07524751771445869 C 1.3220703112363106 0.07461251756496959 1.321752811161566 0.07429501749022503 1.3211178110120767 0.07397751741548049 C 1.2573002959884219 0.02571750605430863 1.18110027804973 0 1.100455259064614 0 C 0.9544052246821204 0 0.8223251935883871 0.08667752040526243 0.7639051798353897 0.2209800520222075 C 0.7556501778920315 0.23971255643213601 0.7493001763971405 0.2587625609168091 0.7442201752012276 0.2784475655509712 C 0.7099301671288162 0.2943225692881987 0.6880226619714422 0.3282950772858657 0.6880226619714422 0.36671258632995635 C 0.6880226619714422 0.4203700989617855 0.7315201722114457 0.46386760920178893 0.7851776848432748 0.46386760920178893 C 0.8388351974751039 0.46386760920178893 0.8823327077151073 0.4203700989617855 0.8823327077151073 0.3667125863299564 C 0.8823327077151073 0.33750257945345774 0.8689977045758362 0.30988007295068176 0.8467726993437177 0.2914650686154978 C 0.8801102071918955 0.17970504230541584 0.9829802314091299 0.10223502406774541 1.100455259064614 0.10223502406774541 C 1.1582402726681222 0.10223502406774541 1.2131677855989296 0.12065002840292936 1.2592052964368894 0.15557503662483 C 1.3261978122079896 0.20605754850921362 1.3649328213268248 0.2832100666721395 1.3649328213268248 0.3667125863299564 C 1.3649328213268248 0.5124451206377053 1.2461877933723629 0.6311901485921675 1.1001377589898693 0.6311901485921675 C 1.0728327525618377 0.6311901485921675 1.0499727471802303 0.653415153824286 1.0496552471054859 0.6807201602523174 C 1.049337747030741 0.700087664811735 1.049337747030741 0.7194551693711525 1.049337747030741 0.7194551693711525 L 1.049337747030741 0.8607427026324779 C 0.9340852198984692 0.8636002033051788 0.821690193438898 0.8763002062949607 0.716280168623707 0.8978902113775903 C 0.6953251636905667 0.9023352124240139 0.6746876588321709 0.9067802134704377 0.6543676540485196 0.9118602146663506 C 0.5435601279626713 0.9388477210196374 0.4413251038949259 0.9763127298394944 0.35274258304119616 1.0226677407521987 C 0.3257550766879093 1.0369552441157035 0.3000375706336007 1.051560247553953 0.2762250650277594 1.0671177512164358 C 0.2762250650277594 1.0671177512164358 0.27590756495301483 1.0674352512911804 0.27559006487827026 1.0674352512911804 C 0.27559006487827026 1.0674352512911804 0.2752725648035257 1.067752751365925 0.2749550647287811 1.067752751365925 C 0.2705100636823574 1.070610252038626 0.26606506263593377 1.073467752711327 0.26162006158951 1.0766427534587726 C 0.2454275577775379 1.0874377560000872 0.23018755418979944 1.0985502586161464 0.2155825507515501 1.1099802613069505 C 0.18288004305286137 1.1372852677349818 0.14382753385928157 1.177290277152795 0.11906252802920661 1.2277727890371788 C 0.11684002750599473 1.2319002900088583 0.11493502705752745 1.2360277909805373 0.11303002660906013 1.2401552919522165 L 0.11303002660906013 1.240472792026961 L 0.1003300236192781 1.2776203007720734 L 0.016827503961461203 1.5195553577274212 C -0.015557503662483 1.6132178797770638 -0.0012700002989782051 1.7135479033963419 0.05651501330453008 1.794192922381458 C 0.07810501838715955 1.8243554294821902 0.10414002451621272 1.8497554354617542 0.133667531467456 1.8697579401706608 C 0.161925038119721 1.8888079446553339 0.19335754551943157 1.9030954480188387 0.22669505336760942 1.9116679500369416 C 0.22669505336760942 1.9116679500369416 0.22701255344235394 1.9116679500369416 0.22701255344235394 1.9116679500369416 C 0.23495005531096774 1.9138904505601537 0.24288755717958152 1.9154779509338766 0.2511425591229398 1.9167479512328545 C 0.2682875631591456 1.9196054519055556 0.28543256719535137 1.921192952279278 0.3032125713810462 1.921192952279278 C 0.31337257377287187 1.921192952279278 0.3232150760899529 1.920557952129789 0.333057578407034 1.9196054519055556 C 0.4241800998587201 1.9107154498127081 0.5045076187690917 1.8621379383767915 0.5540376304292415 1.7887954211108001 C 0.5584826314756652 1.7951454226056913 0.562927632522089 1.8011779240258377 0.5673726335685126 1.80689292537124 C 0.6251576471720208 1.8792829424129973 0.7115176675025388 1.9208754522045335 0.8042276893279476 1.9208754522045335 L 0.8572502018102877 1.9208754522045335 C 0.9572627253548212 1.9208754522045335 1.0461627462832956 1.8719804406938727 1.1014077592888474 1.7970504230541589 C 1.1566527722943993 1.8719804406938727 1.2455527932228734 1.9208754522045335 1.3455653167674069 1.9208754522045335 L 1.398587829249747 1.9208754522045335 C 1.491297851075156 1.9208754522045335 1.5776578714056737 1.8792829424129973 1.635442885009182 1.80689292537124 C 1.6402053861303503 1.8008604239510935 1.644650387176774 1.7948279225309471 1.6490953882231973 1.7887954211108001 C 1.6986253998833476 1.8621379383767915 1.77831791864423 1.910715449812708 1.8697579401706603 1.9196054519055556 C 1.8697579401706603 1.9196054519055556 1.870075440245405 1.9196054519055556 1.870075440245405 1.9196054519055556 C 1.8799179425624861 1.920557952129789 1.8897604448795673 1.921192952279278 1.8999204472713929 1.921192952279278 C 1.917700451457088 1.921192952279278 1.935162955568038 1.9196054519055556 1.9519904595294992 1.9167479512328545 C 1.9599279613981129 1.9154779509338766 1.9681829633414711 1.913572950485409 1.9758029651353406 1.9116679500369416 C 1.9761204652100852 1.9116679500369416 1.9761204652100852 1.9116679500369416 1.9764379652848298 1.9116679500369416 C 2.0097754731330073 1.9030954480188387 2.041207980532718 1.8891254447300785 2.069465487184983 1.8697579401706608 C 2.098992994136226 1.8497554354617542 2.1250280002652793 1.8243554294821902 2.146618005347909 1.794192922381458 C 2.2037680188019286 1.7135479033963419 2.2180555221654337 1.6135353798518082 2.185670514541489 1.5195553577274212 Z M 0.5089526198155153 1.5513053652018765 L 0.48418761398544036 1.6595728906897684 C 0.4832351137612066 1.663382891586703 0.48228261353697294 1.6668753924088928 0.48133011331273934 1.6706853933058277 C 0.46577260965025635 1.7243429059376565 0.4276726006809102 1.766570415878682 0.37877758917024934 1.7881604209613113 C 0.3559175837886417 1.7983204233531371 0.330200077734333 1.804035424698539 0.30353007145579075 1.804035424698539 C 0.30353007145579075 1.804035424698539 0.30353007145579075 1.804035424698539 0.3032125713810462 1.804035424698539 C 0.3032125713810462 1.804035424698539 0.3032125713810462 1.804035424698539 0.3032125713810462 1.804035424698539 C 0.28511506712060675 1.804035424698539 0.2676525630096565 1.8014954241005825 0.2511425591229398 1.7967329229794147 C 0.24955505874921707 1.7964154229046696 0.24828505845023888 1.7957804227551808 0.2466975580765161 1.7954629226804364 C 0.239712556432136 1.7932404221572242 0.2330450548625004 1.7907004215592681 0.22669505336760937 1.7878429208865672 C 0.1974850464911107 1.7748254178220406 0.1717675404368021 1.7538704128889 0.15240003587738446 1.7262479063861245 C 0.1450975341582598 1.7157704039195543 0.13874753266336878 1.7049754013782392 0.13366753146745597 1.69386289876218 C 0.11461752698278291 1.6513178887464104 0.11239502645957103 1.6036928775347277 0.12795253012205404 1.5582903668462567 L 0.21113754970512644 1.3176253101898867 C 0.21113754970512644 1.3176253101898867 0.21113754970512644 1.317307810115142 0.21145504977987095 1.3163553098909084 C 0.21145504977987095 1.3160378098161638 0.2117725498546155 1.3157203097414194 0.2117725498546155 1.3150853095919304 C 0.21209004992936 1.3147678095171857 0.21209004992936 1.3141328093676967 0.21209004992936 1.3138153092929523 L 0.2174875512000174 1.2985753057052138 C 0.2174875512000174 1.2982578056304692 0.2174875512000174 1.2982578056304692 0.21780505127476193 1.2979403055557246 L 0.24542755777753786 1.2182477867948425 C 0.2466975580765161 1.2169777864958644 0.24796755837549428 1.215707786196886 0.2492375586744725 1.2147552859726523 C 0.26733506293491194 1.1985627821606801 0.2870200675690741 1.183005278498197 0.30861007265170354 1.1680827749852032 C 0.31686507459506186 1.1620502735650569 0.3257550766879093 1.156335272219655 0.3346450787807568 1.150620270874253 C 0.3346450787807568 1.150620270874253 0.3349625788555013 1.150620270874253 0.3349625788555013 1.1503027707995082 C 0.339407579901925 1.1474452701268074 0.3438525809483487 1.1445877694541065 0.34861508206951697 1.1417302687814055 C 0.3651250859562336 1.1318877664643243 0.3822700899924394 1.1220452641472434 0.4000500941781342 1.1125202619049068 C 0.46863011032295726 1.0766427534587726 0.5454651284111386 1.0467977464327847 0.6289676480689554 1.023302740901688 L 0.6286501479942109 1.0242552411259216 C 0.6286501479942109 1.0242552411259216 0.6286501479942109 1.0242552411259216 0.6289676480689554 1.0242552411259216 L 0.5089526198155153 1.5513053652018765 Z M 1.0426702454611054 1.618615381047721 L 1.0426702454611054 1.618615381047721 C 1.0426702454611054 1.6367128853081605 1.040130244863149 1.6541753894191107 1.0350502436672364 1.6706853933058277 C 1.0194927400047533 1.723390405713423 0.9813927310354073 1.7662529158039375 0.9318627193752572 1.7881604209613113 C 0.9090027139936495 1.7983204233531371 0.8836027080140856 1.804035424698539 0.8572502018102877 1.804035424698539 L 0.8042276893279477 1.804035424698539 C 0.7778751831241499 1.804035424698539 0.7524751771445859 1.7986379234278813 0.7289801716134893 1.7881604209613113 C 0.7019926652602024 1.7764129181957629 0.6781801596543611 1.7579979138605792 0.659130155169688 1.7341854082547377 C 0.6438901515819495 1.7151354037700648 0.6327776489658902 1.6935453986874354 0.6261101473962546 1.6706853933058277 C 0.6172201453034072 1.6408403862798397 0.6162676450791735 1.6087728787306401 0.6232526467235537 1.5773403713309297 L 0.7512051768456078 1.0153652390330745 L 0.7559676779667761 0.9940927340251894 C 0.8470901994184622 0.9766302299142391 0.9432927220660611 0.966152727447669 1.042352745386361 0.963295226774968 L 1.042352745386361 0.963295226774968 C 1.042352745386361 0.963295226774968 1.0426702454611056 0.963295226774968 1.0426702454611056 0.963295226774968 L 1.0426702454611056 1.618615381047721 Z M 1.5767053711814403 1.6706853933058277 C 1.5700378696118047 1.6935453986874354 1.5589253669957455 1.7151354037700648 1.543685363408007 1.7341854082547377 C 1.5246353589233341 1.7579979138605792 1.5008228533174928 1.7764129181957629 1.473835346964206 1.7881604209613113 C 1.450340341433109 1.7986379234278813 1.4249403354535453 1.804035424698539 1.3985878292497473 1.804035424698539 L 1.3982703291750027 1.804035424698539 L 1.345565316767407 1.804035424698539 L 1.3452478166926627 1.804035424698539 C 1.3354053143755815 1.804035424698539 1.3255628120585006 1.8030829244743054 1.3160378098161638 1.8018129241753271 C 1.3096878083212729 1.8008604239510935 1.303337806826382 1.7992729235773708 1.2973053054062356 1.7976854232036479 C 1.2880978032386434 1.7951454226056918 1.2792078011457961 1.7919704218582464 1.2706352991276932 1.7881604209613113 C 1.2674602983802479 1.7868904206623335 1.264602797707547 1.7853029202886106 1.2614277969601013 1.7837154199148877 C 1.2493627941198084 1.7776829184947416 1.2382502915037492 1.7700629167008723 1.2277727890371788 1.7618079147575139 C 1.2252327884392225 1.759585414234302 1.222692787841266 1.7573629137110902 1.2201527872433098 1.755140413187878 C 1.2103102849262286 1.746250411095031 1.2014202828333813 1.7360904087032052 1.193800281039512 1.724977906087146 C 1.1918952805910445 1.722120405414445 1.1899902801425775 1.7195804048164882 1.18808527969411 1.7167229041437875 C 1.18110027804973 1.7052929014529836 1.1750677766295834 1.6932278986126907 1.1703052755084151 1.680210395548164 C 1.169035275209437 1.6770353948007186 1.1680827749852032 1.673860394053273 1.1671302747609695 1.6703678932310828 C 1.1623677736398013 1.653857889344366 1.159827773041845 1.6363953852334159 1.159827773041845 1.6182978809729767 L 1.159827773041845 0.9632952267749676 C 1.159827773041845 0.9632952267749676 1.1601452731165893 0.9632952267749676 1.1601452731165893 0.9632952267749676 L 1.1601452731165893 0.9632952267749676 C 1.2592052964368894 0.9664702275224132 1.3557253191592329 0.9769477299889835 1.4465303405361745 0.9944102340999338 L 1.4512928416573427 1.0153652390330743 L 1.5792453717793968 1.5773403713309295 C 1.5865478734985212 1.60877287873064 1.5855953732742876 1.6408403862798393 1.5767053711814403 1.6706853933058277 Z M 2.0688304870354943 1.693545398687435 C 2.0637504858395816 1.7046579013034941 2.057717984419435 1.7157704039195536 2.0500979826255663 1.7259304063113794 C 2.030412977991404 1.753235412739411 2.0050129720118397 1.7741904176725511 1.9754854650605964 1.7875254208118223 C 1.9691354635657057 1.790382921484523 1.9624679619960699 1.7929229220824796 1.95548296035169 1.7951454226056913 C 1.953895459977967 1.7957804227551806 1.9526254596789892 1.7960979228299248 1.9510379593052662 1.7964154229046694 C 1.934210455343805 1.8011779240258377 1.917065451307599 1.8037179246237938 1.89896794704716 1.8037179246237938 C 1.8722979407686178 1.8037179246237938 1.8468979347890537 1.7983204233531365 1.8237204293327012 1.7878429208865665 C 1.7748254178220406 1.766252915803937 1.7367254088526944 1.7240254058629116 1.7211679051902116 1.6703678932310826 C 1.7198979048912333 1.6668753924088926 1.7189454046669994 1.6630653915119582 1.7183104045175106 1.6592553906150231 L 1.6935453986874358 1.5509878651271312 L 1.5738478705087402 1.0242552411259211 C 1.6563978899423235 1.0477502466570179 1.73291540795576 1.0772777536082612 1.8008604239510941 1.112837761979651 C 1.8383254327709508 1.1325227666138131 1.8726154408433626 1.1534777715469535 1.90309544801884 1.175702776779072 C 1.90309544801884 1.175702776779072 1.90309544801884 1.175702776779072 1.9034129480935844 1.175702776779072 C 1.9224629525782573 1.1893552799930878 1.939607956614463 1.2036427833565926 1.9558004604264352 1.2182477867948418 C 1.9567529606506686 1.2192002870190757 1.9577054608749027 1.2198352871685645 1.9583404610243915 1.2207877873927984 L 1.9872329678261458 1.3046078071253597 C 1.9881854680503792 1.3074653077980605 1.9891379682746133 1.310005308396017 1.9897729684241021 1.3119103088444843 L 1.9916779688725696 1.3176253101898865 L 2.074545488380897 1.557655366696767 C 2.090420492118124 1.6033753774599826 2.0878804915201674 1.65131788874641 2.0688304870354943 1.693545398687435 Z" fill="#1c3423" transform="matrix(1,0,0,1,0,0)" fill-rule="nonzero"></path></g><g clip-path="url(#SvgjsClipPath24186c5181215-a063-4f6b-bebd-afa20fe630ad)"><path d=" M 0.2514600591976844 1.7967329229794142 C 0.24987255882396167 1.7964154229046694 0.24860255852498345 1.7957804227551806 0.2470150581512607 1.795462922680436 C 0.24003005650688056 1.7932404221572238 0.23336255493724498 1.7907004215592677 0.22701255344235394 1.787842920886567 C 0.19780254656585528 1.7748254178220402 0.17208504051154666 1.7538704128888996 0.15271753595212906 1.726247906386124 C 0.14541503423300436 1.7157704039195538 0.13906503273811335 1.704975401378239 0.13398503154220054 1.6938628987621798 C 0.11493502705752748 1.65131788874641 0.1127125265343156 1.6036928775347272 0.1282700301967986 1.5582903668462564 L 0.21113754970512644 1.3176253101898867 L 0.12795253012205404 1.5582903668462564 C 0.11239502645957104 1.6036928775347272 0.11461752698278291 1.65131788874641 0.13366753146745597 1.6938628987621798 C 0.13874753266336878 1.704975401378239 0.1450975341582598 1.7157704039195536 0.15240003587738446 1.726247906386124 C 0.1717675404368021 1.7538704128889 0.1974850464911107 1.7748254178220402 0.22669505336760937 1.787842920886567 C 0.2330450548625004 1.7907004215592677 0.239712556432136 1.7932404221572242 0.2466975580765161 1.795462922680436 C 0.24828505845023888 1.7957804227551806 0.24955505874921707 1.7964154229046694 0.2511425591229398 1.7967329229794142 C 0.2676525630096565 1.8014954241005825 0.28511506712060675 1.8040354246985388 0.3032125713810462 1.8040354246985388 C 0.3032125713810462 1.8040354246985388 0.3032125713810462 1.8040354246985388 0.3032125713810462 1.8040354246985388 C 0.28543256719535137 1.804035424698539 0.2679700630844011 1.8014954241005825 0.2514600591976844 1.7967329229794142 Z" fill="#faecd3" transform="matrix(1,0,0,1,0,0)" fill-rule="nonzero"></path></g><g clip-path="url(#SvgjsClipPath24186c5181215-a063-4f6b-bebd-afa20fe630ad)"><path d=" M 0.6289676480689556 1.023302740901688 C 0.5454651284111386 1.0467977464327847 0.46863011032295726 1.0766427534587726 0.40005009417813425 1.1125202619049068 C 0.46863011032295726 1.0775952536830062 0.5454651284111387 1.0477502466570185 0.6286501479942109 1.0242552411259216 L 0.6289676480689556 1.023302740901688 Z" fill="#faecd3" transform="matrix(1,0,0,1,0,0)" fill-rule="nonzero"></path></g><g clip-path="url(#SvgjsClipPath24186c5181215-a063-4f6b-bebd-afa20fe630ad)"><path d=" M 1.4512928416573427 1.0153652390330743 L 1.5792453717793968 1.5773403713309295 C 1.5792453717793968 1.5773403713309295 1.5792453717793968 1.5773403713309295 1.5792453717793968 1.5773403713309295 C 1.5792453717793968 1.5773403713309295 1.5792453717793968 1.5773403713309295 1.5792453717793968 1.5773403713309295 L 1.4512928416573427 1.0153652390330743 L 1.4465303405361745 0.9944102340999338 C 1.4125578325385075 0.987742732530298 1.377632824316607 0.9823452312596408 1.342072815945217 0.9775827301384725 C 1.377632824316607 0.9820277311848962 1.4125578325385075 0.987742732530298 1.4465303405361745 0.9944102340999338 L 1.4512928416573427 1.0153652390330743 Z" fill="#faecd3" transform="matrix(1,0,0,1,0,0)" fill-rule="nonzero"></path></g><g clip-path="url(#SvgjsClipPath24186c5181215-a063-4f6b-bebd-afa20fe630ad)"><path d=" M 1.5671803689391037 1.695767899210647 C 1.5646403683411474 1.7011654004813044 1.5617828676684464 1.7065629017519617 1.5589253669957455 1.7116429029478746 C 1.5617828676684464 1.7065629017519617 1.5646403683411474 1.7011654004813042 1.5671803689391037 1.695767899210647 Z" fill="#faecd3" transform="matrix(1,0,0,1,0,0)" fill-rule="nonzero"></path></g><g clip-path="url(#SvgjsClipPath24186c5181215-a063-4f6b-bebd-afa20fe630ad)"><path d=" M 1.573530370433995 1.6792578953239303 C 1.5744828706582286 1.6764003946512294 1.5754353708824622 1.6735428939785284 1.5763878711066959 1.6706853933058272 C 1.5763878711066959 1.6706853933058272 1.5763878711066959 1.6703678932310826 1.5763878711066959 1.6703678932310826 C 1.5763878711066959 1.6703678932310826 1.5763878711066959 1.6706853933058272 1.5763878711066959 1.6706853933058272 C 1.575435370882462 1.6735428939785284 1.574800370732973 1.6764003946512294 1.573530370433995 1.6792578953239303 Z" fill="#faecd3" transform="matrix(1,0,0,1,0,0)" fill-rule="nonzero"></path></g><g clip-path="url(#SvgjsClipPath24186c5181215-a063-4f6b-bebd-afa20fe630ad)"><path d=" M 1.3982703291750025 1.804035424698539 C 1.4081128314920837 1.804035424698539 1.4179553338091646 1.8030829244743054 1.4274803360515012 1.8018129241753271 C 1.4179553338091648 1.803082924474305 1.4081128314920837 1.804035424698539 1.3982703291750025 1.804035424698539 Z" fill="#faecd3" transform="matrix(1,0,0,1,0,0)" fill-rule="nonzero"></path></g><g clip-path="url(#SvgjsClipPath24186c5181215-a063-4f6b-bebd-afa20fe630ad)"><path d=" M 1.573530370433995 1.6792578953239303 C 1.5716253699855274 1.6849728966693318 1.5694028694623157 1.6903703979399896 1.566862868864359 1.695767899210647 C 1.5694028694623157 1.6903703979399896 1.5716253699855274 1.6849728966693323 1.573530370433995 1.6792578953239303 Z" fill="#faecd3" transform="matrix(1,0,0,1,0,0)" fill-rule="nonzero"></path></g><g clip-path="url(#SvgjsClipPath24186c5181215-a063-4f6b-bebd-afa20fe630ad)"><path d=" M 1.2465052934471075 2.468563081138884 C 1.2461877933723626 2.464435580167205 1.2452352931481292 2.4606255792702707 1.2436477927744063 2.4571330784480803 C 1.2426952925501729 2.454910577924868 1.2414252922511946 2.4523705773269118 1.239837791877472 2.4504655768784445 C 1.23761529135426 2.447290576130999 1.2350752907563036 2.4444330754582984 1.2322177900836027 2.4418930748603414 C 1.2252327884392227 2.43617807351494 1.2166602864211198 2.4326855726927494 1.2071352841787835 2.4326855726927494 L 0.9956802343989125 2.4326855726927494 C 0.9737727292415385 2.4326855726927494 0.9559927250558434 2.4504655768784445 0.9559927250558434 2.4723730820358183 L 0.9559927250558434 3.0683207223313405 L 1.2468227935218523 3.0683207223313405 L 1.2468227935218523 2.472690582110563 C 1.2468227935218519 2.471420581811585 1.2468227935218519 2.469833081437862 1.2465052934471075 2.468563081138884 Z" fill="#a4c868" transform="matrix(1,0,0,1,0,0)" fill-rule="nonzero"></path></g><g clip-path="url(#SvgjsClipPath24186c5181215-a063-4f6b-bebd-afa20fe630ad)"><path d=" M 1.6490953882231978 1.7891129211855448 C 1.6446503871767741 1.7951454226056913 1.6402053861303507 1.8011779240258377 1.6354428850091822 1.8072104254459846 C 1.5776578714056742 1.879600442487742 1.4912978510751562 1.921192952279278 1.3985878292497471 1.921192952279278 L 1.345565316767407 1.921192952279278 C 1.2455527932228736 1.921192952279278 1.1566527722943993 1.8722979407686173 1.1014077592888474 1.7973679231289035 C 1.0461627462832956 1.8722979407686173 0.9572627253548212 1.921192952279278 0.8572502018102877 1.921192952279278 L 0.8042276893279477 1.921192952279278 C 0.7115176675025389 1.921192952279278 0.6251576471720209 1.879600442487742 0.5673726335685128 1.8072104254459846 C 0.562927632522089 1.8014954241005825 0.5584826314756652 1.795462922680436 0.5540376304292416 1.7891129211855448 C 0.5045076187690917 1.8624554384515362 0.42418009985872024 1.9110329498874523 0.3330575784070341 1.9199229519803003 L 0.3330575784070341 3.0019632067097297 C 0.3330575784070341 3.038793215380098 0.3629025854330219 3.0686382224060855 0.39973259410338985 3.0686382224060855 L 0.8496302000164185 3.0686382224060855 L 0.8496302000164185 2.4476080762057437 C 0.8496302000164185 2.380933060509388 0.9039227127977368 2.32664054772807 0.9705977284940925 2.32664054772807 L 1.231900290008858 2.32664054772807 C 1.2985753057052136 2.32664054772807 1.352867818486532 2.380933060509388 1.352867818486532 2.4476080762057437 L 1.352867818486532 3.0686382224060855 L 1.8030829244743054 3.0686382224060855 C 1.8399129331446735 3.0686382224060855 1.869757940170661 3.038793215380098 1.869757940170661 3.0019632067097297 L 1.869757940170661 1.9199229519803003 C 1.7783179186442302 1.911350449962197 1.6983078998086032 1.8624554384515362 1.6490953882231978 1.7891129211855448 Z" fill="#faecd3" transform="matrix(1,0,0,1,0,0)" fill-rule="nonzero"></path></g><g clip-path="url(#SvgjsClipPath24186c5181215-a063-4f6b-bebd-afa20fe630ad)"><path d=" M 1.4735178468894612 1.7881604209613113 C 1.5005053532427481 1.7764129181957629 1.5243178588485895 1.7579979138605792 1.5433678633332626 1.7341854082547377 C 1.5490828646786645 1.7272004066103577 1.5541628658745772 1.7195804048164882 1.5586078669210008 1.7116429029478746 C 1.5617828676684464 1.7065629017519617 1.564322868266403 1.7011654004813044 1.5668628688643593 1.695767899210647 C 1.5694028694623159 1.6903703979399896 1.5716253699855276 1.6846553965945876 1.5735303704339951 1.6792578953239303 C 1.5744828706582288 1.6764003946512294 1.5754353708824624 1.6735428939785284 1.5763878711066959 1.6706853933058272 C 1.5763878711066959 1.6706853933058272 1.5763878711066959 1.6703678932310826 1.5763878711066959 1.6703678932310826 C 1.5852778731995434 1.640522886205095 1.5865478734985214 1.6087728787306397 1.5792453717793968 1.577340371330929 C 1.5792453717793968 1.577340371330929 1.5792453717793968 1.577340371330929 1.5792453717793968 1.577340371330929 L 1.4512928416573427 1.0153652390330739 L 1.4465303405361745 0.9944102340999333 C 1.4125578325385075 0.9877427325302977 1.377632824316607 0.9823452312596404 1.342072815945217 0.9775827301384721 C 1.2830178020427305 0.969962728344603 1.222057787691777 0.9652002272234347 1.1604627731913342 0.9632952267749674 C 1.1604627731913342 0.9632952267749674 1.1601452731165893 0.9632952267749674 1.1601452731165893 0.9632952267749674 L 1.1601452731165893 1.6186153810477206 C 1.1601452731165893 1.63671288530816 1.1626852737145459 1.6541753894191102 1.1674477748357142 1.6706853933058268 C 1.1684002750599478 1.6738603940532724 1.1693527752841817 1.6773528948754624 1.1706227755831597 1.680527895622908 C 1.1750677766295834 1.69322789861269 1.18110027804973 1.7056104015277274 1.1884027797688546 1.7170404042185314 C 1.190307780217322 1.7198979048912322 1.1918952805910448 1.7227554055639331 1.1941177811142567 1.7252954061618897 C 1.2017377829081257 1.7360904087032043 1.2106277850009732 1.74625041109503 1.2204702873180542 1.7554579132626222 C 1.2230102879160107 1.7576804137858342 1.2255502885139673 1.7599029143090457 1.2280902891119236 1.7621254148322576 C 1.2385677915784936 1.7706979168503607 1.249680294194553 1.7780004185694853 1.261745297034846 1.7840329199896319 C 1.264602797707547 1.7856204203633543 1.2677777984549925 1.7868904206623326 1.2709527992024379 1.7884779210360553 C 1.2795253012205408 1.7922879219329901 1.2884153033133883 1.7954629226804355 1.2976228054809802 1.7980029232783918 C 1.3036553069011265 1.7995904236521147 1.3100053083960175 1.8011779240258377 1.3163553098909084 1.8021304242500709 C 1.325880312133245 1.8037179246237938 1.3357228144503261 1.804352924773283 1.345565316767407 1.804352924773283 L 1.3458828168421517 1.804352924773283 L 1.3985878292497473 1.804352924773283 C 1.4084303315668285 1.804352924773283 1.4182728338839095 1.8034004245490491 1.427797836126246 1.8021304242500709 C 1.4436728398634735 1.7992729235773708 1.4589128434512117 1.7945104224562025 1.4735178468894612 1.7881604209613113 Z" fill="#67a97b" transform="matrix(1,0,0,1,0,0)" fill-rule="nonzero"></path></g><g clip-path="url(#SvgjsClipPath24186c5181215-a063-4f6b-bebd-afa20fe630ad)"><path d=" M 0.755967677966776 0.9940927340251892 L 0.7512051768456077 1.0153652390330743 L 0.6232526467235537 1.5773403713309295 C 0.6162676450791735 1.60877287873064 0.6172201453034072 1.6408403862798393 0.6261101473962546 1.6706853933058277 C 0.6327776489658902 1.6935453986874354 0.6438901515819495 1.7151354037700648 0.659130155169688 1.7341854082547377 C 0.6781801596543611 1.7579979138605792 0.7019926652602024 1.7764129181957629 0.7289801716134893 1.7881604209613113 C 0.752475177144586 1.7986379234278813 0.77787518312415 1.804035424698539 0.8042276893279477 1.804035424698539 L 0.8572502018102877 1.804035424698539 C 0.8836027080140856 1.804035424698539 0.9090027139936495 1.7983204233531371 0.9318627193752572 1.7881604209613113 C 0.9813927310354073 1.7662529158039375 1.0194927400047533 1.723390405713423 1.0350502436672364 1.6706853933058277 C 1.0401302448631493 1.6541753894191107 1.0426702454611054 1.6367128853081605 1.0426702454611054 1.6186153810477213 L 1.0426702454611054 1.6186153810477213 L 1.0426702454611054 0.9632952267749676 C 1.0426702454611054 0.9632952267749676 1.0423527453863608 0.9632952267749676 1.0423527453863608 0.9632952267749676 C 0.9429752219913166 0.9661527274476688 0.8470901994184622 0.976630229914239 0.755967677966776 0.9940927340251892 Z" fill="#67a97b" transform="matrix(1,0,0,1,0,0)" fill-rule="nonzero"></path></g><g clip-path="url(#SvgjsClipPath24186c5181215-a063-4f6b-bebd-afa20fe630ad)"><path d=" M 0.6286501479942109 1.0242552411259216 C 0.5451476283363941 1.0477502466570183 0.46863011032295726 1.0775952536830062 0.40005009417813425 1.1125202619049068 C 0.3822700899924394 1.1220452641472434 0.36512508595623366 1.1318877664643245 0.348615082069517 1.1417302687814055 C 0.34385258094834875 1.1445877694541065 0.339407579901925 1.1474452701268074 0.33496257885550135 1.1503027707995082 C 0.33496257885550135 1.150620270874253 0.3346450787807568 1.150620270874253 0.3346450787807568 1.150620270874253 C 0.3257550766879094 1.156335272219655 0.31686507459506197 1.1620502735650569 0.3086100726517036 1.1680827749852032 C 0.28702006756907417 1.183005278498197 0.267335062934912 1.1985627821606804 0.24923755867447256 1.2147552859726523 C 0.24796755837549433 1.215707786196886 0.2466975580765161 1.2169777864958642 0.2454275577775379 1.2182477867948425 L 0.21780505127476196 1.2979403055557246 C 0.21748755120001745 1.2982578056304694 0.21748755120001745 1.2982578056304694 0.21748755120001745 1.2985753057052138 L 0.21209004992936006 1.3138153092929523 C 0.21209004992936006 1.314132809367697 0.21209004992936006 1.314767809517186 0.21177254985461555 1.3150853095919304 C 0.21177254985461555 1.3157203097414194 0.211455049779871 1.316037809816164 0.211455049779871 1.3163553098909084 C 0.21113754970512646 1.3173078101151423 0.21113754970512646 1.3176253101898867 0.21113754970512646 1.3176253101898867 L 0.12827003019679864 1.5582903668462564 C 0.11271252653431565 1.6036928775347272 0.1149350270575275 1.65131788874641 0.13398503154220057 1.6938628987621798 C 0.13906503273811338 1.704975401378239 0.1454150342330044 1.7157704039195536 0.15271753595212906 1.726247906386124 C 0.17208504051154666 1.7538704128889 0.19780254656585533 1.7748254178220402 0.22701255344235394 1.787842920886567 C 0.23336255493724498 1.7907004215592677 0.24003005650688056 1.7932404221572242 0.2470150581512607 1.795462922680436 C 0.24860255852498345 1.7957804227551806 0.24987255882396167 1.7964154229046694 0.2514600591976844 1.7967329229794142 C 0.2679700630844011 1.8014954241005825 0.28543256719535137 1.8040354246985388 0.3032125713810462 1.8040354246985388 C 0.3032125713810462 1.8040354246985388 0.3032125713810462 1.8040354246985388 0.30353007145579075 1.8040354246985388 C 0.330200077734333 1.8040354246985388 0.3559175837886417 1.7983204233531367 0.37877758917024934 1.7881604209613111 C 0.4276726006809102 1.7665704158786817 0.46577260965025635 1.7243429059376563 0.48133011331273934 1.6706853933058272 C 0.48228261353697294 1.6668753924088926 0.4832351137612066 1.6633828915867026 0.48418761398544036 1.659572890689768 L 0.5089526198155153 1.551305365201876 L 0.6286501479942109 1.0242552411259216 C 0.6289676480689556 1.0242552411259216 0.6289676480689556 1.0242552411259216 0.6286501479942109 1.0242552411259216 Z" fill="#67a97b" transform="matrix(1,0,0,1,0,0)" fill-rule="nonzero"></path></g><g clip-path="url(#SvgjsClipPath24186c5181215-a063-4f6b-bebd-afa20fe630ad)"><path d=" M 1.9916779688725683 1.3176253101898867 L 1.989772968424101 1.3119103088444848 C 1.9891379682746118 1.3100053083960173 1.988185468050378 1.3074653077980611 1.9872329678261447 1.30460780712536 L 1.9583404610243904 1.2207877873927986 C 1.9577054608749012 1.219835287168565 1.956752960650668 1.219200287019076 1.955800460426434 1.2182477867948422 C 1.9396079566144622 1.2036427833565928 1.9224629525782564 1.189355279993088 1.9034129480935833 1.1757027767790724 C 1.9030954480188387 1.1757027767790724 1.9030954480188387 1.1757027767790724 1.9030954480188387 1.1757027767790724 C 1.8726154408433615 1.1534777715469537 1.8383254327709502 1.1325227666138133 1.800860423951093 1.1128377619796512 C 1.7329154079557592 1.0772777536082616 1.6563978899423224 1.0477502466570183 1.573847870508739 1.0242552411259216 L 1.693545398687435 1.5509878651271316 L 1.7183104045175097 1.6592553906150236 C 1.7189454046669992 1.6630653915119584 1.7198979048912326 1.6668753924088928 1.7211679051902107 1.6703678932310828 C 1.7367254088526938 1.7240254058629119 1.77482541782204 1.7662529158039375 1.8237204293327007 1.787842920886567 C 1.8468979347890526 1.7983204233531367 1.8722979407686167 1.8037179246237942 1.8989679470471592 1.8037179246237942 C 1.917065451307599 1.8037179246237942 1.9342104553438046 1.8011779240258379 1.9510379593052654 1.7964154229046696 C 1.9526254596789883 1.7960979228299252 1.9538954599779665 1.7957804227551806 1.9554829603516892 1.7951454226056918 C 1.9624679619960694 1.7929229220824796 1.9691354635657048 1.7903829214845235 1.9754854650605957 1.7875254208118225 C 2.005012972011839 1.7741904176725511 2.030412977991403 1.7532354127394112 2.0500979826255654 1.7259304063113796 C 2.0577179844194347 1.7157704039195538 2.0637504858395808 1.7046579013034946 2.0688304870354934 1.6935453986874354 C 2.0878804915201665 1.6513178887464104 2.090420492118123 1.603375377459983 2.074545488380896 1.5576553666967676 L 1.9916779688725683 1.3176253101898867 Z" fill="#67a97b" transform="matrix(1,0,0,1,0,0)" fill-rule="nonzero"></path></g></g></g><defs><clipPath id="SvgjsClipPath24188"><path d=" M 0 0 h 2.2028155185776948 v 3.17500074744551 h -2.2028155185776948 Z"></path></clipPath><clipPath id="SvgjsClipPath24186c5181215-a063-4f6b-bebd-afa20fe630ad"><path d=" M 0 0 L 2.2028155185776948 0 L 2.2028155185776948 3.17500074744551 L 0 3.17500074744551 Z"></path></clipPath></defs></svg>